<svg width="1392" height="1392" viewBox="0 0 1392 1392" fill="none" xmlns="http://www.w3.org/2000/svg">
<circle cx="696" cy="696" r="696" fill="#FFEDEF"/>
<mask id="mask0_6_306" style="mask-type:alpha" maskUnits="userSpaceOnUse" x="0" y="0" width="1392" height="1392">
<circle cx="696" cy="696" r="696" fill="#FFEDEF"/>
</mask>
<g mask="url(#mask0_6_306)">
<g clip-path="url(#clip0_6_306)">
<path d="M893.695 1327.77C840.946 1254.51 799.674 1112.87 794.79 1042.04L543.864 933.98L439.464 1327.77H893.695Z" fill="#AC6651" stroke="black" stroke-width="14.6526"/>
<mask id="mask1_6_306" style="mask-type:alpha" maskUnits="userSpaceOnUse" x="439" y="933" width="455" height="432">
<path d="M893.695 1364.4C840.946 1291.14 799.674 1112.87 794.79 1042.04L543.864 933.98L439.464 1364.4H893.695Z" fill="#AC6651"/>
</mask>
<g mask="url(#mask1_6_306)">
<ellipse cx="783.916" cy="926.78" rx="216.126" ry="197.811" fill="black"/>
</g>
<mask id="path-6-inside-1_6_306" fill="white">
<path d="M599.231 245.831C751.524 209.343 904.558 302.693 941.989 454.512L941.994 454.511L942.343 455.97C942.375 456.102 942.408 456.235 942.44 456.368C942.468 456.484 942.494 456.601 942.522 456.717L1002.8 708.294C1002.86 708.556 1002.93 708.817 1002.99 709.079C1003.06 709.36 1003.12 709.641 1003.19 709.922L1004.24 714.295L1004.19 714.306C1037.47 865.478 943.623 1016.07 792.453 1052.29C641.282 1088.51 489.38 996.794 450.541 846.954L450.491 846.967L388.249 587.183L388.255 587.181C352.823 434.884 446.938 282.319 599.231 245.831Z"/>
</mask>
<path d="M599.231 245.831C751.524 209.343 904.558 302.693 941.989 454.512L941.994 454.511L942.343 455.97C942.375 456.102 942.408 456.235 942.44 456.368C942.468 456.484 942.494 456.601 942.522 456.717L1002.8 708.294C1002.86 708.556 1002.93 708.817 1002.99 709.079C1003.06 709.36 1003.12 709.641 1003.19 709.922L1004.24 714.295L1004.19 714.306C1037.47 865.478 943.623 1016.07 792.453 1052.29C641.282 1088.51 489.38 996.794 450.541 846.954L450.491 846.967L388.249 587.183L388.255 587.181C352.823 434.884 446.938 282.319 599.231 245.831Z" fill="#AC6651"/>
<path d="M599.231 245.831L595.817 231.582L595.817 231.582L599.231 245.831ZM941.989 454.512L927.762 458.019L931.118 471.629L944.862 468.88L941.989 454.512ZM941.994 454.511L956.243 451.096L952.955 437.376L939.12 440.143L941.994 454.511ZM942.343 455.97L928.094 459.384L928.096 459.394L928.099 459.404L942.343 455.97ZM942.44 456.368L956.689 452.954V452.954L942.44 456.368ZM942.522 456.717L928.268 460.113L928.271 460.122L928.273 460.131L942.522 456.717ZM1002.8 708.294L988.548 711.708L988.553 711.728L988.558 711.747L1002.8 708.294ZM1002.99 709.079L1017.24 705.665V705.665L1002.99 709.079ZM1003.19 709.922L988.929 713.293L988.934 713.315L988.939 713.336L1003.19 709.922ZM1004.24 714.295L1007.51 728.577L1021.93 725.272L1018.49 710.88L1004.24 714.295ZM1004.19 714.306L1000.92 700.023L986.756 703.268L989.879 717.456L1004.19 714.306ZM792.453 1052.29L795.867 1066.54V1066.54L792.453 1052.29ZM450.541 846.954L464.724 843.277L461.063 829.151L446.921 832.755L450.541 846.954ZM450.491 846.967L436.241 850.381L439.705 864.837L454.11 861.165L450.491 846.967ZM388.249 587.183L384.223 573.095L370.729 576.95L373.999 590.598L388.249 587.183ZM388.255 587.181L392.281 601.27L405.686 597.44L402.527 583.861L388.255 587.181ZM599.231 245.831L602.645 260.08C747.099 225.47 892.258 314.016 927.762 458.019L941.989 454.512L956.215 451.004C916.858 291.37 755.948 193.216 595.817 231.582L599.231 245.831ZM941.989 454.512L944.862 468.88L944.867 468.879L941.994 454.511L939.12 440.143L939.115 440.143L941.989 454.512ZM941.994 454.511L927.744 457.925L928.094 459.384L942.343 455.97L956.592 452.555L956.243 451.096L941.994 454.511ZM942.343 455.97L928.099 459.404C928.179 459.736 928.141 459.573 928.191 459.782L942.44 456.368L956.689 452.954C956.666 452.856 956.644 452.765 956.627 452.698C956.609 452.623 956.598 452.579 956.588 452.536L942.343 455.97ZM942.44 456.368L928.191 459.782C928.292 460.207 928.12 459.491 928.268 460.113L942.522 456.717L956.776 453.32C956.771 453.301 956.766 453.279 956.75 453.211C956.737 453.155 956.714 453.059 956.689 452.954L942.44 456.368ZM942.522 456.717L928.273 460.131L988.548 711.708L1002.8 708.294L1017.05 704.88L956.771 453.303L942.522 456.717ZM1002.8 708.294L988.558 711.747C988.66 712.171 988.673 712.216 988.739 712.493L1002.99 709.079L1017.24 705.665C1017.18 705.418 1017.06 704.94 1017.04 704.84L1002.8 708.294ZM1002.99 709.079L988.739 712.493C988.801 712.75 988.847 712.948 988.929 713.293L1003.19 709.922L1017.45 706.55C1017.4 706.334 1017.31 705.97 1017.24 705.665L1002.99 709.079ZM1003.19 709.922L988.939 713.336L989.987 717.709L1004.24 714.295L1018.49 710.88L1017.44 706.507L1003.19 709.922ZM1004.24 714.295L1000.96 700.012L1000.92 700.023L1004.19 714.306L1007.46 728.588L1007.51 728.577L1004.24 714.295ZM1004.19 714.306L989.879 717.456C1021.44 860.842 932.427 1003.68 789.039 1038.04L792.453 1052.29L795.867 1066.54C954.819 1028.45 1053.49 870.113 1018.5 711.155L1004.19 714.306ZM792.453 1052.29L789.039 1038.04C645.649 1072.39 501.564 985.401 464.724 843.277L450.541 846.954L436.357 850.63C477.197 1008.19 636.914 1104.62 795.867 1066.54L792.453 1052.29ZM450.541 846.954L446.921 832.755L446.871 832.768L450.491 846.967L454.11 861.165L454.16 861.153L450.541 846.954ZM450.491 846.967L464.74 843.553L402.498 583.769L388.249 587.183L373.999 590.598L436.241 850.381L450.491 846.967ZM388.249 587.183L392.274 601.272L392.281 601.27L388.255 587.181L384.23 573.093L384.223 573.095L388.249 587.183ZM388.255 587.181L402.527 583.861C368.918 439.404 458.19 294.69 602.645 260.08L599.231 245.831L595.817 231.582C435.686 269.948 336.727 430.365 373.984 590.502L388.255 587.181Z" fill="black" mask="url(#path-6-inside-1_6_306)"/>
</g>
<path d="M646.513 822.984C645.312 815.718 651.398 809.718 658.33 810.37L658.66 810.406L662.403 810.859C683.464 813.345 738.555 818.846 775.722 813.733C811.856 808.763 863.101 789.35 878.591 783.246L878.899 783.13C885.394 780.793 892.907 784.996 893.521 792.451C894.722 807.031 893.346 821.722 889.442 835.849C885.086 851.614 877.667 866.366 867.609 879.264C857.551 892.162 845.051 902.952 830.823 911.019C816.596 919.086 800.918 924.273 784.686 926.281C768.454 928.289 751.985 927.08 736.221 922.724C720.456 918.367 705.703 910.949 692.805 900.891C679.907 890.833 669.117 878.333 661.05 864.106C653.817 851.349 648.9 837.426 646.513 822.984Z" fill="black" stroke="black" stroke-width="14.6526"/>
<mask id="mask2_6_306" style="mask-type:alpha" maskUnits="userSpaceOnUse" x="653" y="788" width="234" height="132">
<path d="M885.728 788.283C887.618 803.56 886.481 819.06 882.381 833.897C878.28 848.735 871.298 862.62 861.832 874.759C852.366 886.898 840.601 897.054 827.21 904.646C813.819 912.239 799.064 917.12 783.787 919.01C768.51 920.9 753.01 919.762 738.172 915.662C723.335 911.562 709.45 904.58 697.311 895.114C685.172 885.648 675.016 873.883 667.423 860.492C659.831 847.101 654.95 832.346 653.06 817.069L885.728 788.283Z" fill="#171921"/>
</mask>
<g mask="url(#mask2_6_306)">
<circle cx="785.829" cy="935.256" r="78.7579" transform="rotate(-7.05286 785.829 935.256)" fill="#FC909F"/>
</g>
<path d="M802.232 484.323C822.99 474.554 871.832 465.641 901.137 508.133" stroke="black" stroke-width="14.6526" stroke-linecap="round"/>
<path d="M525.953 577.025C533.538 555.374 561.42 514.294 612.267 523.182" stroke="black" stroke-width="14.6526" stroke-linecap="round"/>
<path opacity="0.35" d="M904.748 396.261C875.442 372.817 824.769 370.62 804.011 372.451L774.705 275.377C824.524 287.1 891.927 363.293 904.748 396.261Z" fill="#717376"/>
<path d="M530.397 156.65C530.397 156.65 551.415 142.138 640.123 119.789C728.832 97.4399 761.176 106.171 761.176 106.171L804.358 372.965C804.358 372.965 774.91 372.33 701.672 388.326C628.433 404.323 593.379 423.735 593.379 423.735L530.397 156.65Z" fill="#171921"/>
<path d="M395.569 431.062C370.659 278.674 481.042 181.356 531.105 154.493L593.379 423.735C523.046 278.674 427.316 368.177 395.569 431.062Z" fill="#171921"/>
<path opacity="0.35" d="M463.337 592.239C436.962 492.601 543.926 438.995 593.379 423.732C567.737 363.9 509.126 310.174 437.695 376.113C371.758 487.838 397.4 573.925 417.548 639.86L463.337 592.239Z" fill="#717376"/>
<path d="M610.947 589.131C629.662 586.907 646.878 598.093 652.977 615.111C653.941 617.8 651.227 620.132 648.465 619.399C640.318 617.234 631.174 616.538 621.67 617.667C605.555 619.582 591.673 626.354 582.643 635.571C580.539 637.718 576.753 637.055 576.334 634.078C576.294 633.792 576.257 633.506 576.223 633.219C573.637 611.456 589.183 591.717 610.947 589.131Z" fill="black"/>
<path d="M845.436 552.984C863.957 550.783 880.995 561.839 887.055 578.666C888.024 581.355 885.309 583.687 882.547 582.956C874.49 580.824 865.452 580.139 856.06 581.255C840.122 583.149 826.389 589.838 817.442 598.945C815.334 601.09 811.55 600.425 811.136 597.446C811.1 597.186 811.066 596.925 811.035 596.663C808.473 575.102 823.875 555.546 845.436 552.984Z" fill="#171921"/>
<path d="M733.648 655.438C752.771 648.162 786.119 650.36 784.066 687.355C782.241 720.234 748.507 726.763 737.76 719.096" stroke="black" stroke-width="14.6526"/>
<path d="M456.064 660.012C447.528 657.202 438.315 655.706 428.883 655.706C390.444 655.706 359.283 679.516 362.946 723.474C366.762 769.264 394.107 785.748 432.546 785.748C436.823 785.748 441.01 785.372 445.074 784.653C449.509 783.868 453.796 782.674 457.895 781.113" stroke="#171921" stroke-width="29.3053"/>
<path d="M459.727 780.386C451.376 783.838 442.19 785.748 432.546 785.748C394.107 785.748 366.762 769.264 362.946 723.474C359.283 679.516 390.444 655.706 428.883 655.706C440.376 655.706 451.546 657.927 461.558 662.041L459.727 780.386Z" fill="#AC6651"/>
<path d="M445.074 686.844C430.422 680.129 398.186 676.588 386.464 716.15" stroke="#171921" stroke-width="14.6526"/>
<path d="M406.611 688.674C414.548 695.39 429.689 716.148 426.758 745.453" stroke="#171921" stroke-width="14.6526"/>
<path d="M466.85 1195.7C472.717 1194.36 480.695 1194.77 490.669 1197.09C500.541 1199.39 511.796 1203.42 523.935 1208.75C548.209 1219.42 575.308 1234.98 600.773 1251.1C626.199 1267.2 649.809 1283.73 667.074 1296.24C675.703 1302.5 682.737 1307.75 687.609 1311.42C690.044 1313.26 691.938 1314.71 693.221 1315.69C693.862 1316.19 694.351 1316.56 694.677 1316.82C694.84 1316.94 694.963 1317.04 695.044 1317.1C695.084 1317.13 695.114 1317.15 695.134 1317.17C695.144 1317.18 695.151 1317.18 695.156 1317.19C695.158 1317.19 695.159 1317.19 695.16 1317.19L699.663 1311.41L695.161 1317.19L701.468 1322.1L705.813 1315.39C705.814 1315.39 705.816 1315.39 705.82 1315.38C705.826 1315.37 705.838 1315.35 705.854 1315.33C705.886 1315.28 705.936 1315.2 706.004 1315.1C706.14 1314.89 706.347 1314.58 706.622 1314.17C707.173 1313.34 707.998 1312.12 709.075 1310.57C711.232 1307.45 714.399 1302.99 718.411 1297.66C726.447 1286.98 737.819 1272.88 751.209 1259.09C764.635 1245.27 779.878 1231.98 795.629 1222.74C811.441 1213.46 827.056 1208.66 841.547 1210.61C997.006 1231.57 1111.4 1300.43 1185.67 1402.99H184.531C244.239 1295.51 329.164 1227.09 466.85 1195.7Z" fill="#6BD9E9" stroke="black" stroke-width="14.6526"/>
<path d="M423.507 1205.49L442.434 1135.04C443.2 1132.19 446.891 1131.38 448.884 1133.56C503.33 1193.14 572.038 1190.81 594.843 1188.07C597.938 1187.7 600.362 1191.09 598.908 1193.85L550.712 1285.25C549.973 1286.65 548.461 1287.43 546.911 1287.1C532.446 1284.09 460.376 1266.47 423.932 1208.36C423.399 1207.51 423.247 1206.46 423.507 1205.49Z" fill="#D2EFF3" stroke="black" stroke-width="14.6526"/>
<path d="M901.85 1205.11L859.428 1133.75C857.988 1131.32 854.44 1131.36 852.905 1133.73C831.889 1166.09 795.643 1181 782.969 1185.41C780.689 1186.2 779.646 1188.91 780.875 1190.99L830.337 1274.56C831.075 1275.81 832.47 1276.49 833.863 1276.09C841.683 1273.86 868.517 1262.64 901.802 1208.92C902.517 1207.77 902.544 1206.28 901.85 1205.11Z" fill="#D2EFF3" stroke="black" stroke-width="14.6526"/>
<path d="M631.895 1269.29L598.926 1190.53L573.284 1245.48L631.895 1269.29Z" fill="black" stroke="black" stroke-width="14.6526" stroke-linejoin="round"/>
<path d="M747.284 1265.62L780.252 1186.87L805.895 1241.81L747.284 1265.62Z" fill="black" stroke="black" stroke-width="14.6526" stroke-linejoin="round"/>
<path d="M489.031 1120.93L445.073 1131.92L481.705 1155.73L489.031 1120.93Z" fill="black" stroke="black" stroke-width="14.6526" stroke-linejoin="round"/>
<path d="M816.884 1120.93L857.179 1131.92L831.537 1155.73L816.884 1120.93Z" fill="black" stroke="black" stroke-width="14.6526" stroke-linejoin="round"/>
</g>
<defs>
<clipPath id="clip0_6_306">
<rect width="732.632" height="1172.21" fill="white" transform="translate(329.685 157.517)"/>
</clipPath>
</defs>
</svg>
