<svg width="1392" height="1392" viewBox="0 0 1392 1392" fill="none" xmlns="http://www.w3.org/2000/svg">
<circle cx="696" cy="696" r="696" fill="#E0DDFF"/>
<mask id="mask0_6_331" style="mask-type:alpha" maskUnits="userSpaceOnUse" x="0" y="0" width="1392" height="1392">
<circle cx="696" cy="696" r="696" fill="#FFEDEF"/>
</mask>
<g mask="url(#mask0_6_331)">
<path d="M893.694 1364.4C840.944 1291.14 799.673 1112.87 794.789 1042.05L543.862 933.981L439.462 1364.4H893.694Z" fill="#FC909F" stroke="black" stroke-width="14.6526"/>
<mask id="mask1_6_331" style="mask-type:alpha" maskUnits="userSpaceOnUse" x="439" y="933" width="455" height="432">
<path d="M893.694 1364.4C840.944 1291.14 799.673 1112.87 794.789 1042.05L543.862 933.981L439.462 1364.4H893.694Z" fill="#FFEDEF"/>
</mask>
<g mask="url(#mask1_6_331)">
<ellipse cx="783.915" cy="926.781" rx="216.126" ry="197.811" fill="black"/>
</g>
<g clip-path="url(#clip0_6_331)">
<path d="M893.682 1327.77C840.933 1254.51 799.661 1112.87 794.777 1042.04L543.851 933.98L439.451 1327.77H893.682Z" fill="#77311D" stroke="black" stroke-width="14.6526"/>
<mask id="mask2_6_331" style="mask-type:alpha" maskUnits="userSpaceOnUse" x="439" y="933" width="455" height="432">
<path d="M893.682 1364.4C840.933 1291.14 799.661 1112.87 794.777 1042.04L543.851 933.98L439.451 1364.4H893.682Z" fill="#AC6651"/>
</mask>
<g mask="url(#mask2_6_331)">
<ellipse cx="783.903" cy="926.78" rx="216.126" ry="197.811" fill="black"/>
</g>
<mask id="path-9-inside-1_6_331" fill="white">
<path d="M599.218 245.831C751.511 209.343 904.545 302.693 941.976 454.512L941.981 454.511L942.331 455.97C942.363 456.102 942.395 456.235 942.427 456.368C942.455 456.484 942.482 456.601 942.509 456.717L1002.78 708.294C1002.85 708.556 1002.91 708.817 1002.98 709.079C1003.04 709.36 1003.11 709.641 1003.18 709.922L1004.22 714.295L1004.18 714.306C1037.46 865.478 943.61 1016.07 792.44 1052.29C641.269 1088.51 489.367 996.794 450.528 846.954L450.478 846.967L388.236 587.183L388.243 587.181C352.81 434.884 446.925 282.319 599.218 245.831Z"/>
</mask>
<path d="M599.218 245.831C751.511 209.343 904.545 302.693 941.976 454.512L941.981 454.511L942.331 455.97C942.363 456.102 942.395 456.235 942.427 456.368C942.455 456.484 942.482 456.601 942.509 456.717L1002.78 708.294C1002.85 708.556 1002.91 708.817 1002.98 709.079C1003.04 709.36 1003.11 709.641 1003.18 709.922L1004.22 714.295L1004.18 714.306C1037.46 865.478 943.61 1016.07 792.44 1052.29C641.269 1088.51 489.367 996.794 450.528 846.954L450.478 846.967L388.236 587.183L388.243 587.181C352.81 434.884 446.925 282.319 599.218 245.831Z" fill="#77311D"/>
<path d="M599.218 245.831L595.804 231.582L595.804 231.582L599.218 245.831ZM941.976 454.512L927.749 458.019L931.105 471.629L944.85 468.88L941.976 454.512ZM941.981 454.511L956.23 451.096L952.942 437.376L939.107 440.143L941.981 454.511ZM942.331 455.97L928.081 459.384L928.084 459.394L928.086 459.404L942.331 455.97ZM942.427 456.368L956.677 452.954V452.954L942.427 456.368ZM942.509 456.717L928.256 460.113L928.258 460.122L928.26 460.131L942.509 456.717ZM1002.78 708.294L988.535 711.708L988.54 711.728L988.545 711.747L1002.78 708.294ZM1002.98 709.079L1017.23 705.665V705.665L1002.98 709.079ZM1003.18 709.922L988.916 713.293L988.921 713.315L988.926 713.336L1003.18 709.922ZM1004.22 714.295L1007.5 728.577L1021.92 725.272L1018.47 710.88L1004.22 714.295ZM1004.18 714.306L1000.9 700.023L986.743 703.268L989.866 717.456L1004.18 714.306ZM792.44 1052.29L795.854 1066.54V1066.54L792.44 1052.29ZM450.528 846.954L464.712 843.277L461.05 829.151L446.909 832.755L450.528 846.954ZM450.478 846.967L436.229 850.381L439.692 864.837L454.097 861.165L450.478 846.967ZM388.236 587.183L384.21 573.095L370.717 576.95L373.986 590.598L388.236 587.183ZM388.243 587.181L392.268 601.27L405.673 597.44L402.514 583.861L388.243 587.181ZM599.218 245.831L602.632 260.08C747.087 225.47 892.246 314.016 927.749 458.019L941.976 454.512L956.203 451.004C916.845 291.37 755.935 193.216 595.804 231.582L599.218 245.831ZM941.976 454.512L944.85 468.88L944.855 468.879L941.981 454.511L939.107 440.143L939.102 440.143L941.976 454.512ZM941.981 454.511L927.732 457.925L928.081 459.384L942.331 455.97L956.58 452.555L956.23 451.096L941.981 454.511ZM942.331 455.97L928.086 459.404C928.166 459.736 928.128 459.573 928.178 459.782L942.427 456.368L956.677 452.954C956.653 452.856 956.631 452.765 956.615 452.698C956.596 452.623 956.586 452.579 956.575 452.536L942.331 455.97ZM942.427 456.368L928.178 459.782C928.28 460.207 928.107 459.491 928.256 460.113L942.509 456.717L956.763 453.32C956.758 453.301 956.753 453.279 956.737 453.211C956.724 453.155 956.702 453.059 956.677 452.954L942.427 456.368ZM942.509 456.717L928.26 460.131L988.535 711.708L1002.78 708.294L1017.03 704.88L956.759 453.303L942.509 456.717ZM1002.78 708.294L988.545 711.747C988.647 712.171 988.66 712.216 988.727 712.493L1002.98 709.079L1017.23 705.665C1017.17 705.418 1017.05 704.94 1017.02 704.84L1002.78 708.294ZM1002.98 709.079L988.727 712.493C988.788 712.75 988.834 712.948 988.916 713.293L1003.18 709.922L1017.43 706.55C1017.38 706.334 1017.3 705.97 1017.23 705.665L1002.98 709.079ZM1003.18 709.922L988.926 713.336L989.974 717.709L1004.22 714.295L1018.47 710.88L1017.42 706.507L1003.18 709.922ZM1004.22 714.295L1000.95 700.012L1000.9 700.023L1004.18 714.306L1007.45 728.588L1007.5 728.577L1004.22 714.295ZM1004.18 714.306L989.866 717.456C1021.43 860.842 932.415 1003.68 789.026 1038.04L792.44 1052.29L795.854 1066.54C954.806 1028.45 1053.48 870.113 1018.49 711.155L1004.18 714.306ZM792.44 1052.29L789.026 1038.04C645.637 1072.39 501.551 985.401 464.712 843.277L450.528 846.954L436.344 850.63C477.184 1008.19 636.902 1104.62 795.854 1066.54L792.44 1052.29ZM450.528 846.954L446.909 832.755L446.859 832.768L450.478 846.967L454.097 861.165L454.147 861.153L450.528 846.954ZM450.478 846.967L464.727 843.553L402.485 583.769L388.236 587.183L373.986 590.598L436.229 850.381L450.478 846.967ZM388.236 587.183L392.261 601.272L392.268 601.27L388.243 587.181L384.217 573.093L384.21 573.095L388.236 587.183ZM388.243 587.181L402.514 583.861C368.905 439.404 458.178 294.69 602.632 260.08L599.218 245.831L595.804 231.582C435.673 269.948 336.714 430.365 373.971 590.502L388.243 587.181Z" fill="black" mask="url(#path-9-inside-1_6_331)"/>
</g>
<path d="M754.602 804.783C769.865 796.236 831.528 785.369 831.528 810.278C831.528 841.415 789.402 839.583 789.402 839.583C789.402 839.583 837.187 828.004 827.865 861.562C818.707 894.531 793.065 881.71 785.739 878.046" stroke="black" stroke-width="14.6526"/>
<path d="M728.967 318.694C782.693 316.252 876.959 286.458 824.209 186.821" stroke="black" stroke-width="14.6526"/>
<path d="M633.725 311.368C687.451 308.926 781.717 279.132 728.967 179.494" stroke="black" stroke-width="14.6526"/>
<path d="M501.851 351.663C555.578 349.221 649.843 319.427 597.093 219.789" stroke="black" stroke-width="14.6526"/>
<path d="M802.23 484.324C822.988 474.555 871.83 465.642 901.135 508.134" stroke="#FC909F" stroke-width="14.6526" stroke-linecap="round"/>
<path d="M525.952 577.026C533.537 555.375 561.419 514.294 612.266 523.183" stroke="#FC909F" stroke-width="14.6526" stroke-linecap="round"/>
<path d="M535.092 554.815L512.569 534.937" stroke="#FC909F" stroke-width="14.6526" stroke-linecap="round"/>
<path d="M890.003 487.777L912.526 467.899" stroke="#FC909F" stroke-width="14.6526" stroke-linecap="round"/>
<path d="M558.716 534.143L543.892 508.015" stroke="#FC909F" stroke-width="14.6526" stroke-linecap="round"/>
<path d="M862.716 474.43L877.54 448.302" stroke="#FC909F" stroke-width="14.6526" stroke-linecap="round"/>
<path d="M588.3 520.905L580.237 491.967" stroke="#FC909F" stroke-width="14.6526" stroke-linecap="round"/>
<path d="M829.469 472.182L837.531 443.244" stroke="#FC909F" stroke-width="14.6526" stroke-linecap="round"/>
<path d="M653.939 598.495C660.744 621.799 635.485 603.906 612.182 610.712C588.878 617.518 576.354 646.444 569.548 623.141C562.742 599.837 576.117 575.428 599.421 568.623C622.724 561.817 647.133 575.191 653.939 598.495Z" fill="#6BD9E9"/>
<path d="M887.617 564.82C893.605 588.347 870.423 570.389 846.896 576.377C823.369 582.365 808.405 610.033 802.417 586.505C796.429 562.978 810.647 539.051 834.174 533.063C857.701 527.075 881.628 541.293 887.617 564.82Z" fill="#6BD9E9"/>
<path d="M610.944 589.131C629.66 586.907 646.876 598.093 652.975 615.111C653.939 617.801 651.225 620.132 648.463 619.399C640.316 617.234 631.172 616.538 621.668 617.667C605.553 619.582 591.671 626.355 582.641 635.571C580.536 637.719 576.751 637.055 576.332 634.078C576.292 633.793 576.255 633.506 576.221 633.219C573.635 611.456 589.181 591.717 610.944 589.131Z" fill="black"/>
<path d="M845.433 552.984C863.954 550.784 880.993 561.839 887.053 578.667C888.021 581.355 885.307 583.687 882.545 582.956C874.488 580.824 865.45 580.14 856.057 581.256C840.119 583.15 826.386 589.839 817.439 598.945C815.332 601.09 811.547 600.425 811.134 597.447C811.098 597.186 811.064 596.925 811.033 596.663C808.471 575.102 823.872 555.546 845.433 552.984Z" fill="black"/>
<path d="M746.475 633.616C747.22 647.691 752.695 677.872 768.632 685.989C788.554 696.136 772.936 729.774 735.642 727.617" stroke="black" stroke-width="14.6526"/>
<path d="M691.578 153.001C747.006 153.001 791.568 159.351 827.385 180.988C862.981 202.491 891.008 239.769 911.826 304.001C913.944 310.538 920.943 314.533 927.785 312.313C969.237 298.866 1032.08 312.441 1085.13 347.073C1137.95 381.553 1178.97 435.557 1178.97 500.646C1178.97 557.154 1169.29 595.337 1159.85 632.522C1148.43 677.54 1137.4 721.022 1145.18 791.862C1147.78 815.487 1153.06 832.241 1160.44 846.132C1167.76 859.903 1176.99 870.54 1186.72 881.786C1209.7 908.353 1220.16 930.207 1223.54 949.431C1226.91 968.608 1223.38 986.001 1216.82 1004.05C1213.53 1013.11 1209.52 1022.22 1205.27 1031.81C1201.06 1041.33 1196.61 1051.32 1192.63 1061.85C1184.64 1082.99 1178.4 1106.57 1179.02 1134.51C1179.54 1158.23 1183.75 1174.49 1190.04 1186.78C1196.31 1199.05 1204.43 1206.86 1211.47 1213.69C1217.86 1219.88 1223.17 1225.08 1227.1 1232.38C1230.61 1238.91 1233.21 1247.52 1233.65 1260.45C1145.7 1312.75 1058.66 1334.38 993.292 1342.88C960.192 1347.19 932.686 1348.12 913.497 1347.99C903.903 1347.92 896.393 1347.59 891.305 1347.27C889.515 1347.16 888.026 1347.05 886.851 1346.95C864.321 1312.56 843.791 1255.82 827.886 1197.54C812.421 1140.87 801.563 1083.65 797.481 1045.85C933.287 1006.59 1018.41 866.422 997.942 721.807C997.916 721.547 997.89 721.368 997.888 721.358C997.858 721.139 997.818 720.889 997.776 720.631C997.69 720.105 997.567 719.403 997.412 718.551C997.1 716.837 996.642 714.421 996.047 711.395C994.857 705.339 993.111 696.788 990.876 686.434C986.408 665.731 979.979 637.776 972.134 608.125C964.295 578.492 955.014 547.061 944.832 519.44C934.723 492.022 923.472 467.632 911.466 452.628L910.38 451.27L908.786 450.579L906.874 449.744C866.58 432.04 817.526 403.692 750.184 401.029C681.408 398.309 594.311 422.187 476.578 507.575L469.168 512.949L476.295 518.692C534.635 565.705 547.248 628.063 544.552 680.999C542.495 721.395 531.549 755.761 525.374 772.941C521.12 766.727 518.41 758.915 516.374 749.741C514.891 743.064 513.831 736.01 512.692 728.607C511.568 721.302 510.369 713.681 508.624 706.322C505.138 691.629 499.244 676.944 486.161 666.545C473.048 656.122 453.939 650.958 426.111 652.511L417.952 652.967L419.654 660.96L461.263 856.254L461.333 856.581L461.434 856.901C476.298 904.014 501.786 944.85 534.374 977.09C534.651 977.554 535.058 978.239 535.577 979.126C536.636 980.938 538.162 983.592 540.01 986.925C543.709 993.595 548.685 1002.96 553.788 1013.75C564.096 1035.54 574.521 1062.3 576.53 1084.14C578.568 1106.31 572.994 1134.91 566.613 1158.54C563.454 1170.24 560.16 1180.5 557.656 1187.83C557.134 1189.36 556.645 1190.76 556.201 1192.01C537.767 1183.2 521.304 1183.86 507.194 1192.07C491.942 1200.95 480.773 1217.93 472.457 1236.82C457.261 1271.33 449.953 1316.09 446.581 1343.86C355.476 1322.96 285.129 1301.75 237.266 1285.63C212.673 1277.35 194.016 1270.42 181.53 1265.56C175.287 1263.13 170.585 1261.22 167.457 1259.93C166.68 1259.61 166 1259.32 165.417 1259.08C164.857 1257.64 164.087 1255.63 163.153 1253.08C161.076 1247.39 158.185 1239.03 154.968 1228.39C148.532 1207.1 140.8 1176.74 135.645 1140.55C125.325 1068.11 125.401 972.761 166.403 880.038C198.637 807.141 270.016 724.545 270.016 530.939C270.016 418.881 324.406 324.508 404.48 257.98C484.627 191.392 590.192 153.001 691.578 153.001Z" fill="#FC909F" stroke="black" stroke-width="14"/>
<path d="M456.054 660.012C447.519 657.202 438.305 655.706 428.874 655.706C390.435 655.706 359.274 679.516 362.937 723.474C366.753 769.264 394.098 785.748 432.537 785.748C436.814 785.748 441.001 785.372 445.065 784.653C449.499 783.868 453.787 782.674 457.886 781.113" stroke="black" stroke-width="29.3053"/>
<path d="M459.718 780.386C451.367 783.838 442.181 785.748 432.537 785.748C394.098 785.748 366.753 769.264 362.937 723.474C359.274 679.516 390.435 655.706 428.874 655.706C440.367 655.706 451.537 657.927 461.549 662.041L459.718 780.386Z" fill="#77311D"/>
<path d="M445.065 686.844C430.412 680.129 398.177 676.588 386.454 716.15" stroke="black" stroke-width="14.6526"/>
<path d="M406.602 688.674C414.539 695.39 429.68 716.148 426.749 745.453" stroke="black" stroke-width="14.6526"/>
<path d="M443.233 765.601C491.788 765.601 531.149 804.962 531.149 853.516C531.149 902.071 491.788 941.432 443.233 941.432C394.679 941.432 355.318 902.071 355.318 853.516C355.318 830.104 368.139 811.39 379.39 793.074L382.791 787.58" stroke="#F4D150" stroke-width="14.6526"/>
<path d="M857.127 1127.35C872.858 1123.55 889.679 1124.65 907.376 1129.89C943.017 1140.43 981.152 1167.44 1018.37 1202.17C1086.56 1265.81 1149.12 1352.89 1184.52 1402.49H184.815C201.373 1368.77 232.253 1305.69 272.535 1249.29C295.223 1217.53 320.624 1188.28 347.772 1167.71C374.924 1147.14 403.159 1135.73 431.843 1138.24C492.214 1143.52 545.362 1179.21 599.448 1212.17C652.508 1244.51 706.997 1274.53 766.923 1261.39C787.196 1256.95 800.859 1247.43 809.458 1235.15C817.934 1223.03 820.982 1208.95 821.509 1196.08C822.036 1183.2 820.062 1171.02 818.01 1162.16C817.052 1158.02 816.061 1154.55 815.271 1152.01C828.551 1138.64 842.61 1130.86 857.127 1127.35Z" fill="white" stroke="black" stroke-width="15.6575"/>
</g>
<defs>
<clipPath id="clip0_6_331">
<rect width="732.632" height="1172.21" fill="white" transform="translate(329.672 157.517)"/>
</clipPath>
</defs>
</svg>
