<svg width="1392" height="1392" viewBox="0 0 1392 1392" fill="none" xmlns="http://www.w3.org/2000/svg">
<circle cx="696" cy="696" r="696" fill="#E0DDFF"/>
<mask id="mask0_6_370" style="mask-type:alpha" maskUnits="userSpaceOnUse" x="0" y="0" width="1392" height="1392">
<circle cx="696" cy="696" r="696" fill="#FFEDEF"/>
</mask>
<g mask="url(#mask0_6_370)">
<g clip-path="url(#clip0_6_370)">
<path d="M893.695 1327.77C840.945 1254.51 799.674 1112.87 794.79 1042.04L543.863 933.98L439.463 1327.77H893.695Z" fill="#F9C9B6" stroke="black" stroke-width="14.6526"/>
<mask id="mask1_6_370" style="mask-type:alpha" maskUnits="userSpaceOnUse" x="439" y="933" width="455" height="432">
<path d="M893.695 1364.4C840.945 1291.14 799.674 1112.87 794.79 1042.04L543.863 933.98L439.463 1364.4H893.695Z" fill="#F9C9B6"/>
</mask>
<g mask="url(#mask1_6_370)">
<ellipse cx="783.916" cy="926.78" rx="216.126" ry="197.811" fill="black"/>
</g>
<mask id="path-6-inside-1_6_370" fill="white">
<path d="M599.231 245.831C751.523 209.343 904.558 302.693 941.989 454.512L941.993 454.511L942.343 455.97C942.375 456.102 942.408 456.235 942.44 456.368C942.468 456.484 942.494 456.601 942.522 456.717L1002.8 708.294C1002.86 708.556 1002.93 708.817 1002.99 709.079C1003.06 709.36 1003.12 709.641 1003.19 709.922L1004.24 714.295L1004.19 714.306C1037.47 865.478 943.623 1016.07 792.452 1052.29C641.282 1088.51 489.38 996.794 450.54 846.954L450.49 846.967L388.248 587.183L388.255 587.181C352.822 434.884 446.938 282.319 599.231 245.831Z"/>
</mask>
<path d="M599.231 245.831C751.523 209.343 904.558 302.693 941.989 454.512L941.993 454.511L942.343 455.97C942.375 456.102 942.408 456.235 942.44 456.368C942.468 456.484 942.494 456.601 942.522 456.717L1002.8 708.294C1002.86 708.556 1002.93 708.817 1002.99 709.079C1003.06 709.36 1003.12 709.641 1003.19 709.922L1004.24 714.295L1004.19 714.306C1037.47 865.478 943.623 1016.07 792.452 1052.29C641.282 1088.51 489.38 996.794 450.54 846.954L450.49 846.967L388.248 587.183L388.255 587.181C352.822 434.884 446.938 282.319 599.231 245.831Z" fill="#F9C9B6"/>
<path d="M599.231 245.831L595.817 231.582L595.817 231.582L599.231 245.831ZM941.989 454.512L927.762 458.019L931.117 471.629L944.862 468.88L941.989 454.512ZM941.993 454.511L956.243 451.096L952.955 437.376L939.12 440.143L941.993 454.511ZM942.343 455.97L928.094 459.384L928.096 459.394L928.098 459.404L942.343 455.97ZM942.44 456.368L956.689 452.954V452.954L942.44 456.368ZM942.522 456.717L928.268 460.113L928.27 460.122L928.272 460.131L942.522 456.717ZM1002.8 708.294L988.548 711.708L988.552 711.728L988.557 711.747L1002.8 708.294ZM1002.99 709.079L1017.24 705.665V705.665L1002.99 709.079ZM1003.19 709.922L988.928 713.293L988.933 713.315L988.938 713.336L1003.19 709.922ZM1004.24 714.295L1007.51 728.577L1021.93 725.272L1018.48 710.88L1004.24 714.295ZM1004.19 714.306L1000.92 700.023L986.755 703.268L989.879 717.456L1004.19 714.306ZM792.452 1052.29L795.866 1066.54V1066.54L792.452 1052.29ZM450.54 846.954L464.724 843.277L461.062 829.151L446.921 832.755L450.54 846.954ZM450.49 846.967L436.241 850.381L439.705 864.837L454.11 861.165L450.49 846.967ZM388.248 587.183L384.223 573.095L370.729 576.95L373.999 590.598L388.248 587.183ZM388.255 587.181L392.281 601.27L405.686 597.44L402.527 583.861L388.255 587.181ZM599.231 245.831L602.645 260.08C747.099 225.47 892.258 314.016 927.762 458.019L941.989 454.512L956.215 451.004C916.858 291.37 755.948 193.216 595.817 231.582L599.231 245.831ZM941.989 454.512L944.862 468.88L944.867 468.879L941.993 454.511L939.12 440.143L939.115 440.143L941.989 454.512ZM941.993 454.511L927.744 457.925L928.094 459.384L942.343 455.97L956.592 452.555L956.243 451.096L941.993 454.511ZM942.343 455.97L928.098 459.404C928.179 459.736 928.14 459.573 928.19 459.782L942.44 456.368L956.689 452.954C956.666 452.856 956.643 452.765 956.627 452.698C956.609 452.623 956.598 452.579 956.588 452.536L942.343 455.97ZM942.44 456.368L928.19 459.782C928.292 460.207 928.12 459.491 928.268 460.113L942.522 456.717L956.775 453.32C956.771 453.301 956.766 453.279 956.75 453.211C956.737 453.155 956.714 453.059 956.689 452.954L942.44 456.368ZM942.522 456.717L928.272 460.131L988.548 711.708L1002.8 708.294L1017.05 704.88L956.771 453.303L942.522 456.717ZM1002.8 708.294L988.557 711.747C988.66 712.171 988.673 712.216 988.739 712.493L1002.99 709.079L1017.24 705.665C1017.18 705.418 1017.06 704.94 1017.04 704.84L1002.8 708.294ZM1002.99 709.079L988.739 712.493C988.801 712.75 988.847 712.948 988.928 713.293L1003.19 709.922L1017.45 706.55C1017.4 706.334 1017.31 705.97 1017.24 705.665L1002.99 709.079ZM1003.19 709.922L988.938 713.336L989.986 717.709L1004.24 714.295L1018.48 710.88L1017.44 706.507L1003.19 709.922ZM1004.24 714.295L1000.96 700.012L1000.92 700.023L1004.19 714.306L1007.46 728.588L1007.51 728.577L1004.24 714.295ZM1004.19 714.306L989.879 717.456C1021.44 860.842 932.427 1003.68 789.038 1038.04L792.452 1052.29L795.866 1066.54C954.818 1028.45 1053.49 870.113 1018.5 711.155L1004.19 714.306ZM792.452 1052.29L789.038 1038.04C645.649 1072.39 501.563 985.401 464.724 843.277L450.54 846.954L436.356 850.63C477.196 1008.19 636.914 1104.62 795.866 1066.54L792.452 1052.29ZM450.54 846.954L446.921 832.755L446.871 832.768L450.49 846.967L454.11 861.165L454.16 861.153L450.54 846.954ZM450.49 846.967L464.74 843.553L402.498 583.769L388.248 587.183L373.999 590.598L436.241 850.381L450.49 846.967ZM388.248 587.183L392.274 601.272L392.281 601.27L388.255 587.181L384.23 573.093L384.223 573.095L388.248 587.183ZM388.255 587.181L402.527 583.861C368.918 439.404 458.19 294.69 602.645 260.08L599.231 245.831L595.817 231.582C435.685 269.948 336.727 430.365 373.984 590.502L388.255 587.181Z" fill="black" mask="url(#path-6-inside-1_6_370)"/>
</g>
<path d="M761.119 778.288C800.816 771.104 837.973 804.038 846.061 848.733C854.15 893.427 830.893 937.295 791.195 944.479C751.498 951.664 714.341 918.729 706.252 874.035C698.164 829.341 721.421 785.473 761.119 778.288Z" fill="black" stroke="black" stroke-width="13.1549"/>
<mask id="mask2_6_370" style="mask-type:alpha" maskUnits="userSpaceOnUse" x="711" y="783" width="131" height="156">
<ellipse cx="776.157" cy="861.383" rx="64.4627" ry="77.8679" transform="rotate(-10.2582 776.157 861.383)" fill="#171921"/>
</mask>
<g mask="url(#mask2_6_370)">
<ellipse cx="788.1" cy="927.364" rx="74.0127" ry="67.0529" transform="rotate(-10.2582 788.1 927.364)" fill="#FC909F"/>
</g>
<circle cx="612.794" cy="583.404" r="43.9579" transform="rotate(-6.27568 612.794 583.404)" fill="#D2EFF3"/>
<ellipse cx="617.52" cy="616.972" rx="32.9684" ry="49.4526" transform="rotate(-6.77646 617.52 616.972)" fill="black"/>
<circle cx="846.427" cy="551.799" r="43.9579" transform="rotate(-6.27568 846.427 551.799)" fill="#D2EFF3"/>
<ellipse cx="851.962" cy="580.34" rx="32.9684" ry="49.4526" transform="rotate(-6.27568 851.962 580.34)" fill="black"/>
<path d="M802.231 484.324C822.989 474.555 871.831 465.642 901.137 508.134" stroke="black" stroke-width="14.6526" stroke-linecap="round"/>
<path d="M525.953 577.026C533.538 555.375 561.42 514.294 612.267 523.183" stroke="black" stroke-width="14.6526" stroke-linecap="round"/>
<path d="M535.093 554.815L512.57 534.937" stroke="black" stroke-width="14.6526" stroke-linecap="round"/>
<path d="M890.004 487.777L912.527 467.899" stroke="black" stroke-width="14.6526" stroke-linecap="round"/>
<path d="M558.717 534.143L543.893 508.015" stroke="black" stroke-width="14.6526" stroke-linecap="round"/>
<path d="M862.717 474.43L877.541 448.302" stroke="black" stroke-width="14.6526" stroke-linecap="round"/>
<path d="M588.301 520.905L580.239 491.967" stroke="black" stroke-width="14.6526" stroke-linecap="round"/>
<path d="M829.47 472.182L837.533 443.244" stroke="black" stroke-width="14.6526" stroke-linecap="round"/>
<path d="M604.243 438.602L610.292 439.559C611.157 439.697 611.156 439.7 611.156 439.703C611.155 439.705 611.154 439.711 611.154 439.715C611.152 439.723 611.152 439.732 611.15 439.742C611.147 439.762 611.142 439.784 611.138 439.81C611.13 439.86 611.119 439.921 611.106 439.994C611.079 440.14 611.042 440.332 610.994 440.566C610.896 441.036 610.75 441.683 610.538 442.501C610.113 444.138 609.425 446.462 608.336 449.438C606.158 455.391 602.38 463.938 595.907 474.798C584.296 494.276 564.032 521.165 528.812 553.881C638.6 556.619 730.302 521.251 795.571 484.161C829.86 464.676 856.788 444.751 875.122 429.718C884.286 422.203 891.295 415.917 895.995 411.529C898.344 409.336 900.116 407.617 901.291 406.457C901.878 405.877 902.315 405.437 902.601 405.146C902.744 405.001 902.85 404.894 902.917 404.825C902.95 404.791 902.974 404.767 902.988 404.752C902.995 404.745 902.999 404.74 903.001 404.737C903.003 404.736 903.003 404.736 903.003 404.735L911.361 396.041L914.763 407.613L908.048 409.589C914.533 407.682 914.756 407.617 914.764 407.616C914.765 407.618 914.766 407.621 914.767 407.625C914.769 407.632 914.772 407.643 914.776 407.656C914.784 407.684 914.796 407.725 914.812 407.779C914.844 407.889 914.893 408.052 914.956 408.267C915.082 408.696 915.269 409.335 915.513 410.171C916.002 411.843 916.722 414.307 917.642 417.473C919.483 423.803 922.128 432.944 925.35 444.188C931.794 466.673 940.544 497.577 949.77 531.245C968.186 598.451 988.614 677.089 996.268 721.618C1011.55 810.515 980.357 873.848 971.967 902.821C972.163 902.986 972.419 903.187 972.753 903.424C974.94 904.974 978.82 906.762 984.425 908.544C995.472 912.055 1011.24 914.935 1028.1 916.558C1044.93 918.178 1062.44 918.506 1076.95 917.091C1084.21 916.382 1090.53 915.254 1095.55 913.722C1100.36 912.25 1103.38 910.583 1105.01 909.078C1105.06 908.765 1105.13 908.011 1104.94 906.558C1104.59 903.716 1103.46 899.714 1101.51 894.42C1097.62 883.84 1091.22 870.083 1083.92 853.47C1069.52 820.724 1052.21 778.139 1048.43 734.753C1044.18 685.778 1054.08 644.004 1062.74 606.488C1071.49 568.612 1078.76 535.72 1071.29 502.387C1059.95 451.797 1044.48 409.679 1020.72 379.414C997.219 349.471 965.338 330.784 920.002 327.348L915.321 326.992L913.873 322.525C893.013 258.163 864.851 216.107 828.939 190.027C793.04 163.958 748.513 153.21 693.625 153.21C592.202 153.21 482.984 191.744 401.022 258.409C319.145 325.006 264.96 419.206 272.049 530.704C279.874 653.754 270.955 747.057 250.845 815.378C232.508 877.675 204.715 919.649 171.402 944.134C175.773 946.366 181.599 949.203 188.878 952.447C207.293 960.655 235 971.49 271.935 981.854C342.761 1001.73 447.567 1019.87 585.909 1014.4C555.414 988.212 524.647 956.427 500.286 922.829C472.326 884.267 452.17 842.449 451.58 803.5C450.879 757.247 454.012 636.214 454.981 611.16C457.233 552.929 494.621 508.044 530.214 478.188C548.115 463.173 565.848 451.712 579.095 444.006C585.726 440.149 591.253 437.221 595.139 435.25C597.082 434.264 598.617 433.516 599.676 433.011C600.206 432.758 600.618 432.565 600.902 432.434C601.044 432.368 601.154 432.317 601.231 432.281C601.27 432.264 601.301 432.249 601.323 432.239C601.334 432.234 601.343 432.231 601.35 432.228C601.354 432.226 601.357 432.224 601.359 432.224C601.362 432.222 601.364 432.221 604.243 438.602ZM604.243 438.602L601.365 432.221L613.176 426.892L611.158 439.692L604.243 438.602Z" fill="#D2EFF3" stroke="black" stroke-width="14"/>
<path d="M915.79 326.021C917.622 342.505 914.691 375.473 910.295 397.452" stroke="black" stroke-width="14.6526"/>
<path d="M746.485 633.616C747.23 647.691 752.705 677.872 768.642 685.989C788.564 696.136 772.946 729.774 735.652 727.617" stroke="black" stroke-width="14.6526"/>
<path d="M479.874 793.205L477.917 795.313C464.517 809.752 446.917 820.548 426.846 820.548C414.692 820.548 403.281 818.756 394.366 813.689C385.013 808.374 378.96 799.747 377.534 787.775C377.039 783.622 377.356 779.675 378.423 776.014C365.427 764.6 357.59 747.423 355.645 724.083C353.649 700.131 361.166 680.917 375.099 667.776C388.878 654.781 408.221 648.38 428.882 648.38C446.069 648.38 462.702 652.972 476.379 661.365L479.874 663.51V793.205Z" stroke="black" stroke-width="14.6526"/>
<path d="M428.882 655.706C467.321 655.706 502.146 680.552 502.146 717.979C502.146 720.427 502.01 722.844 501.751 725.224C499.726 761.745 467.535 813.221 426.846 813.221C403.63 813.221 387.114 806.256 384.809 786.908C384.21 781.878 385.155 777.473 387.311 773.722C373.739 764.033 364.984 747.936 362.946 723.474C359.283 679.517 390.444 655.706 428.882 655.706Z" fill="#F9C9B6"/>
<path d="M445.074 686.844C430.421 680.129 398.185 676.588 386.463 716.15" stroke="black" stroke-width="14.6526"/>
<path d="M406.611 688.674C414.548 695.39 429.689 716.148 426.758 745.453" stroke="black" stroke-width="14.6526"/>
<circle cx="421.263" cy="791.243" r="14.6526" fill="white"/>
<circle cx="424.926" cy="787.58" r="3.66316" fill="#FFEDEF"/>
<path d="M466.85 1195.7C472.718 1194.36 480.695 1194.77 490.669 1197.09C500.541 1199.39 511.797 1203.42 523.935 1208.75C548.21 1219.42 575.308 1234.98 600.773 1251.1C626.199 1267.2 649.809 1283.73 667.075 1296.24C675.703 1302.5 682.737 1307.75 687.609 1311.42C690.044 1313.26 691.939 1314.71 693.221 1315.69C693.862 1316.19 694.351 1316.56 694.677 1316.82C694.84 1316.94 694.963 1317.04 695.044 1317.1C695.085 1317.13 695.115 1317.15 695.134 1317.17C695.144 1317.18 695.151 1317.18 695.156 1317.19C695.158 1317.19 695.16 1317.19 695.161 1317.19L699.664 1311.41L695.162 1317.19L701.468 1322.1L705.813 1315.39C705.814 1315.39 705.816 1315.39 705.82 1315.38C705.827 1315.37 705.838 1315.35 705.854 1315.33C705.886 1315.28 705.937 1315.2 706.004 1315.1C706.14 1314.89 706.347 1314.58 706.623 1314.17C707.173 1313.34 707.998 1312.12 709.076 1310.57C711.232 1307.45 714.4 1302.99 718.412 1297.66C726.447 1286.98 737.819 1272.88 751.209 1259.09C764.635 1245.27 779.878 1231.98 795.629 1222.74C811.441 1213.46 827.056 1208.66 841.547 1210.61C997.006 1231.57 1111.41 1300.43 1185.67 1402.99H184.531C244.239 1295.51 329.164 1227.09 466.85 1195.7Z" fill="#9287FF" stroke="black" stroke-width="14.6526"/>
<path d="M423.507 1205.49L442.434 1135.04C443.2 1132.19 446.891 1131.38 448.884 1133.56C503.33 1193.14 572.038 1190.81 594.843 1188.07C597.938 1187.7 600.362 1191.09 598.908 1193.85L550.712 1285.25C549.973 1286.65 548.461 1287.43 546.911 1287.1C532.446 1284.09 460.376 1266.47 423.932 1208.36C423.399 1207.51 423.247 1206.46 423.507 1205.49Z" fill="#E0DDFF" stroke="black" stroke-width="14.6526"/>
<path d="M901.85 1205.11L859.428 1133.75C857.988 1131.32 854.44 1131.36 852.905 1133.73C831.889 1166.09 795.643 1181 782.969 1185.41C780.689 1186.2 779.646 1188.91 780.875 1190.99L830.337 1274.56C831.075 1275.81 832.47 1276.49 833.863 1276.09C841.683 1273.86 868.517 1262.64 901.802 1208.92C902.517 1207.77 902.544 1206.28 901.85 1205.11Z" fill="#E0DDFF" stroke="black" stroke-width="14.6526"/>
<path d="M631.895 1269.29L598.926 1190.53L573.284 1245.48L631.895 1269.29Z" fill="black" stroke="black" stroke-width="14.6526" stroke-linejoin="round"/>
<path d="M747.284 1265.62L780.252 1186.87L805.895 1241.81L747.284 1265.62Z" fill="black" stroke="black" stroke-width="14.6526" stroke-linejoin="round"/>
<path d="M489.032 1120.93L445.074 1131.92L481.705 1155.73L489.032 1120.93Z" fill="black" stroke="black" stroke-width="14.6526" stroke-linejoin="round"/>
<path d="M816.884 1120.93L857.179 1131.92L831.537 1155.73L816.884 1120.93Z" fill="black" stroke="black" stroke-width="14.6526" stroke-linejoin="round"/>
</g>
<defs>
<clipPath id="clip0_6_370">
<rect width="732.632" height="1172.21" fill="white" transform="translate(329.685 157.517)"/>
</clipPath>
</defs>
</svg>
