<svg width="1392" height="1392" viewBox="0 0 1392 1392" fill="none" xmlns="http://www.w3.org/2000/svg">
<circle cx="696" cy="696" r="696" fill="#F9C9B6"/>
<mask id="mask0_6_357" style="mask-type:alpha" maskUnits="userSpaceOnUse" x="0" y="0" width="1392" height="1392">
<circle cx="696" cy="696" r="696" fill="#FFEDEF"/>
</mask>
<g mask="url(#mask0_6_357)">
<path d="M893.695 1364.4C840.945 1291.14 799.674 1112.87 794.79 1042.05L543.863 933.981L439.463 1364.4H893.695Z" fill="#FC909F" stroke="black" stroke-width="14.6526"/>
<mask id="mask1_6_357" style="mask-type:alpha" maskUnits="userSpaceOnUse" x="439" y="933" width="455" height="432">
<path d="M893.695 1364.4C840.945 1291.14 799.674 1112.87 794.79 1042.05L543.863 933.981L439.463 1364.4H893.695Z" fill="#FFEDEF"/>
</mask>
<g mask="url(#mask1_6_357)">
<ellipse cx="783.916" cy="926.781" rx="216.126" ry="197.811" fill="black"/>
</g>
<g clip-path="url(#clip0_6_357)">
<path d="M893.695 1364.4C840.945 1291.14 799.674 1112.87 794.79 1042.04L543.863 933.98L439.463 1364.4H893.695Z" fill="#77311D" stroke="black" stroke-width="14.6526"/>
<mask id="mask2_6_357" style="mask-type:alpha" maskUnits="userSpaceOnUse" x="439" y="933" width="455" height="432">
<path d="M893.695 1364.4C840.945 1291.14 799.674 1112.87 794.79 1042.04L543.863 933.98L439.463 1364.4H893.695Z" fill="#AC6651"/>
</mask>
<g mask="url(#mask2_6_357)">
<ellipse cx="783.916" cy="926.78" rx="216.126" ry="197.811" fill="black"/>
</g>
<mask id="path-9-inside-1_6_357" fill="white">
<path d="M599.231 245.831C751.523 209.343 904.558 302.693 941.989 454.512L941.993 454.511L942.342 455.969C942.374 456.102 942.408 456.235 942.44 456.368C942.468 456.484 942.494 456.601 942.522 456.718L1002.75 708.102C1002.83 708.428 1002.91 708.753 1002.99 709.079C1003.07 709.414 1003.15 709.75 1003.23 710.086L1008.77 733.242L1007.74 733.49C1029.42 878.021 937.224 1017.6 792.452 1052.29C647.68 1086.97 502.24 1004.33 456.073 865.663L455.03 865.914L388.248 587.183L388.255 587.181C352.822 434.884 446.938 282.319 599.231 245.831Z"/>
</mask>
<path d="M599.231 245.831C751.523 209.343 904.558 302.693 941.989 454.512L941.993 454.511L942.342 455.969C942.374 456.102 942.408 456.235 942.44 456.368C942.468 456.484 942.494 456.601 942.522 456.718L1002.75 708.102C1002.83 708.428 1002.91 708.753 1002.99 709.079C1003.07 709.414 1003.15 709.75 1003.23 710.086L1008.77 733.242L1007.74 733.49C1029.42 878.021 937.224 1017.6 792.452 1052.29C647.68 1086.97 502.24 1004.33 456.073 865.663L455.03 865.914L388.248 587.183L388.255 587.181C352.822 434.884 446.938 282.319 599.231 245.831Z" fill="#77311D"/>
<path d="M599.231 245.831L595.817 231.582L595.817 231.582L599.231 245.831ZM941.989 454.512L927.762 458.019L931.117 471.629L944.862 468.88L941.989 454.512ZM941.993 454.511L956.244 451.103L952.961 437.374L939.12 440.143L941.993 454.511ZM942.342 455.969L928.091 459.376L928.094 459.389L928.098 459.403L942.342 455.969ZM942.44 456.368L956.689 452.954V452.954L942.44 456.368ZM942.522 456.718L928.268 460.114L928.27 460.123L928.272 460.132L942.522 456.718ZM1002.75 708.102L988.502 711.516L988.508 711.541L988.514 711.566L1002.75 708.102ZM1002.99 709.079L1017.24 705.665V705.665L1002.99 709.079ZM1003.23 710.086L988.964 713.449L988.97 713.475L988.977 713.5L1003.23 710.086ZM1008.77 733.242L1012.18 747.493L1026.44 744.086L1023.02 729.828L1008.77 733.242ZM1007.74 733.49L1004.33 719.239L991.251 722.364L993.246 735.664L1007.74 733.49ZM792.452 1052.29L795.866 1066.54V1066.54L792.452 1052.29ZM456.073 865.663L469.976 861.034L465.727 848.272L452.648 851.416L456.073 865.663ZM455.03 865.914L440.78 869.328L444.197 883.588L458.455 880.161L455.03 865.914ZM388.248 587.183L384.223 573.095L370.729 576.95L373.999 590.597L388.248 587.183ZM388.255 587.181L392.281 601.27L405.686 597.44L402.527 583.861L388.255 587.181ZM599.231 245.831L602.645 260.08C747.099 225.47 892.258 314.016 927.762 458.019L941.989 454.512L956.215 451.004C916.858 291.37 755.948 193.216 595.817 231.582L599.231 245.831ZM941.989 454.512L944.862 468.88L944.867 468.879L941.993 454.511L939.12 440.143L939.115 440.143L941.989 454.512ZM941.993 454.511L927.742 457.918L928.091 459.376L942.342 455.969L956.593 452.561L956.244 451.103L941.993 454.511ZM942.342 455.969L928.098 459.403C928.268 460.108 928.075 459.3 928.19 459.782L942.44 456.368L956.689 452.954C956.66 452.834 956.633 452.724 956.617 452.66C956.598 452.582 956.592 452.556 956.587 452.534L942.342 455.969ZM942.44 456.368L928.19 459.782C928.19 459.781 928.191 459.786 928.195 459.8C928.198 459.814 928.202 459.832 928.209 459.861C928.22 459.908 928.243 460.009 928.268 460.114L942.522 456.718L956.775 453.321C956.773 453.31 956.769 453.294 956.753 453.225C956.74 453.17 956.716 453.067 956.689 452.954L942.44 456.368ZM942.522 456.718L928.272 460.132L988.502 711.516L1002.75 708.102L1017 704.688L956.771 453.304L942.522 456.718ZM1002.75 708.102L988.514 711.566C988.606 711.945 988.669 712.198 988.739 712.493L1002.99 709.079L1017.24 705.665C1017.15 705.308 1017.05 704.911 1016.99 704.639L1002.75 708.102ZM1002.99 709.079L988.739 712.493C988.813 712.801 988.866 713.032 988.964 713.449L1003.23 710.086L1017.49 706.722C1017.43 706.469 1017.32 706.028 1017.24 705.665L1002.99 709.079ZM1003.23 710.086L988.977 713.5L994.525 736.657L1008.77 733.242L1023.02 729.828L1017.48 706.671L1003.23 710.086ZM1008.77 733.242L1005.37 718.991L1004.33 719.239L1007.74 733.49L1011.14 747.742L1012.18 747.493L1008.77 733.242ZM1007.74 733.49L993.246 735.664C1013.81 872.742 926.352 1005.14 789.038 1038.04L792.452 1052.29L795.866 1066.54C948.096 1030.06 1045.03 883.301 1022.23 731.316L1007.74 733.49ZM792.452 1052.29L789.038 1038.04C651.725 1070.94 513.762 992.549 469.976 861.034L456.073 865.663L442.171 870.292C490.718 1016.11 643.636 1103.01 795.866 1066.54L792.452 1052.29ZM456.073 865.663L452.648 851.416L451.604 851.667L455.03 865.914L458.455 880.161L459.499 879.91L456.073 865.663ZM455.03 865.914L469.279 862.5L402.498 583.769L388.248 587.183L373.999 590.597L440.78 869.328L455.03 865.914ZM388.248 587.183L392.274 601.272L392.281 601.27L388.255 587.181L384.23 573.093L384.223 573.095L388.248 587.183ZM388.255 587.181L402.527 583.861C368.918 439.404 458.19 294.69 602.645 260.08L599.231 245.831L595.817 231.582C435.685 269.948 336.727 430.365 373.984 590.502L388.255 587.181Z" fill="black" mask="url(#path-9-inside-1_6_357)"/>
</g>
<path d="M696.001 832.144C714.098 855.759 741.523 881.922 783.829 875.955C826.135 869.989 844.958 840.806 839.408 817.172" stroke="black" stroke-width="14.6526"/>
<path d="M802.231 484.323C822.989 474.554 871.831 465.641 901.137 508.133" stroke="black" stroke-width="14.6526" stroke-linecap="round"/>
<path d="M525.953 577.025C533.538 555.374 561.42 514.294 612.267 523.182" stroke="black" stroke-width="14.6526" stroke-linecap="round"/>
<path d="M1032.01 482.772C1032.01 240.676 898.455 76.926 735.779 76.9258C527.37 76.9258 315.032 155.103 315.032 524.763C315.032 616.225 354.078 684.375 408.679 734.609C403.206 727.761 398.796 721.628 395.866 716.582C385.277 617.747 502.705 541.887 617.614 467.655C678.615 428.248 738.905 389.3 778.957 347.617C814.103 367.533 917.402 450.968 937.084 484.708C947.64 502.803 964.591 564.817 976.173 637.204C1014.04 591.718 1032.01 546.202 1032.01 482.772Z" fill="white" stroke="black" stroke-width="14.6526"/>
<path d="M781.219 345.237C829.477 301.483 901.672 201.62 897.039 136.76" stroke="black" stroke-width="14.6526"/>
<ellipse cx="616.007" cy="615.23" rx="32.9684" ry="36.6316" transform="rotate(-6.77646 616.007 615.23)" fill="black"/>
<ellipse cx="850.561" cy="578.585" rx="32.9684" ry="36.6316" transform="rotate(-6.27568 850.561 578.585)" fill="black"/>
<circle cx="859.01" cy="582.442" r="95.2421" stroke="#F4D150" stroke-width="14.6526"/>
<circle cx="613.578" cy="615.411" r="95.2421" stroke="#F4D150" stroke-width="14.6526"/>
<path d="M767.431 608.084C767.431 600.312 764.343 592.858 758.848 587.362C753.352 581.867 745.898 578.779 738.126 578.779C730.353 578.779 722.899 581.867 717.404 587.362C711.908 592.858 708.82 600.312 708.82 608.084" stroke="#F4D150" stroke-width="14.6526"/>
<path d="M520.168 622.737L410.273 642.884" stroke="#F4D150" stroke-width="14.6526"/>
<path d="M746.485 633.616C747.23 647.691 752.705 677.872 768.642 685.989C788.564 696.136 772.946 729.774 735.652 727.617" stroke="black" stroke-width="14.6526"/>
<path d="M456.063 660.012C447.528 657.202 438.314 655.706 428.883 655.706C390.444 655.706 359.283 679.516 362.946 723.474C366.762 769.264 394.107 785.748 432.546 785.748C436.823 785.748 441.01 785.372 445.074 784.653C449.508 783.868 453.796 782.674 457.895 781.113" stroke="black" stroke-width="29.3053"/>
<path d="M459.726 780.386C451.376 783.838 442.19 785.748 432.546 785.748C394.107 785.748 366.762 769.264 362.946 723.474C359.283 679.516 390.444 655.706 428.883 655.706C440.376 655.706 451.546 657.927 461.558 662.041L459.726 780.386Z" fill="#77311D"/>
<path d="M445.074 686.844C430.421 680.129 398.185 676.588 386.463 716.15" stroke="black" stroke-width="14.6526"/>
<path d="M406.611 688.674C414.548 695.39 429.689 716.148 426.758 745.453" stroke="black" stroke-width="14.6526"/>
<path d="M674.021 1175.66C708.658 1175.66 735.611 1180.94 761.189 1187.91C786.347 1194.77 811.85 1203.82 840.887 1210.49L841.399 1210.61L841.924 1210.65C1010.89 1224.59 1112.21 1299.64 1185.74 1402.99H184.53C244.239 1295.51 329.163 1227.09 466.85 1195.7C525.509 1182.33 593.845 1175.66 674.021 1175.66Z" fill="#9287FF" stroke="black" stroke-width="14.6526"/>
<path d="M424.668 1203.65L458.198 1131.86C458.999 1130.15 460.989 1129.33 462.773 1129.96C601.703 1179.14 728.092 1175.68 845.219 1143.07C846.694 1142.66 848.268 1143.21 849.172 1144.44L900.208 1214.23C901.611 1216.15 900.896 1218.86 898.684 1219.72C775.575 1268.07 544.572 1259.85 426.444 1208.49C424.57 1207.68 423.804 1205.5 424.668 1203.65Z" fill="#E0DDFF" stroke="black" stroke-width="14.6526"/>
</g>
<defs>
<clipPath id="clip0_6_357">
<rect width="732.632" height="1208.84" fill="white" transform="translate(329.685 157.517)"/>
</clipPath>
</defs>
</svg>
