<svg width="1392" height="1392" viewBox="0 0 1392 1392" fill="none" xmlns="http://www.w3.org/2000/svg">
<circle cx="696" cy="696" r="696" fill="#D2EFF3"/>
<mask id="mask0_6_345" style="mask-type:alpha" maskUnits="userSpaceOnUse" x="0" y="0" width="1392" height="1392">
<circle cx="696" cy="696" r="696" fill="#FFEDEF"/>
</mask>
<g mask="url(#mask0_6_345)">
<g clip-path="url(#clip0_6_345)">
<path d="M893.695 1327.77C840.946 1254.51 799.674 1112.87 794.79 1042.04L543.864 933.98L439.464 1327.77H893.695Z" fill="#F9C9B6" stroke="black" stroke-width="14.6526"/>
<mask id="mask1_6_345" style="mask-type:alpha" maskUnits="userSpaceOnUse" x="439" y="933" width="455" height="432">
<path d="M893.695 1364.4C840.946 1291.14 799.674 1112.87 794.79 1042.04L543.864 933.98L439.464 1364.4H893.695Z" fill="#AC6651"/>
</mask>
<g mask="url(#mask1_6_345)">
<ellipse cx="783.916" cy="926.78" rx="216.126" ry="197.811" fill="black"/>
</g>
<mask id="path-6-inside-1_6_345" fill="white">
<path d="M599.231 245.831C751.524 209.343 904.558 302.693 941.989 454.512L941.994 454.511L942.343 455.97C942.375 456.102 942.408 456.235 942.44 456.368C942.468 456.484 942.494 456.601 942.522 456.717L1002.8 708.294C1002.86 708.556 1002.93 708.817 1002.99 709.079C1003.06 709.36 1003.12 709.641 1003.19 709.922L1004.24 714.295L1004.19 714.306C1037.47 865.478 943.623 1016.07 792.453 1052.29C641.282 1088.51 489.38 996.794 450.541 846.954L450.491 846.967L388.249 587.183L388.255 587.181C352.823 434.884 446.938 282.319 599.231 245.831Z"/>
</mask>
<path d="M599.231 245.831C751.524 209.343 904.558 302.693 941.989 454.512L941.994 454.511L942.343 455.97C942.375 456.102 942.408 456.235 942.44 456.368C942.468 456.484 942.494 456.601 942.522 456.717L1002.8 708.294C1002.86 708.556 1002.93 708.817 1002.99 709.079C1003.06 709.36 1003.12 709.641 1003.19 709.922L1004.24 714.295L1004.19 714.306C1037.47 865.478 943.623 1016.07 792.453 1052.29C641.282 1088.51 489.38 996.794 450.541 846.954L450.491 846.967L388.249 587.183L388.255 587.181C352.823 434.884 446.938 282.319 599.231 245.831Z" fill="#F9C9B6"/>
<path d="M599.231 245.831L595.817 231.582L595.817 231.582L599.231 245.831ZM941.989 454.512L927.762 458.019L931.118 471.629L944.862 468.88L941.989 454.512ZM941.994 454.511L956.243 451.096L952.955 437.376L939.12 440.143L941.994 454.511ZM942.343 455.97L928.094 459.384L928.096 459.394L928.099 459.404L942.343 455.97ZM942.44 456.368L956.689 452.954V452.954L942.44 456.368ZM942.522 456.717L928.268 460.113L928.271 460.122L928.273 460.131L942.522 456.717ZM1002.8 708.294L988.548 711.708L988.553 711.728L988.558 711.747L1002.8 708.294ZM1002.99 709.079L1017.24 705.665V705.665L1002.99 709.079ZM1003.19 709.922L988.929 713.293L988.934 713.315L988.939 713.336L1003.19 709.922ZM1004.24 714.295L1007.51 728.577L1021.93 725.272L1018.49 710.88L1004.24 714.295ZM1004.19 714.306L1000.92 700.023L986.756 703.268L989.879 717.456L1004.19 714.306ZM792.453 1052.29L795.867 1066.54V1066.54L792.453 1052.29ZM450.541 846.954L464.724 843.277L461.063 829.151L446.921 832.755L450.541 846.954ZM450.491 846.967L436.241 850.381L439.705 864.837L454.11 861.165L450.491 846.967ZM388.249 587.183L384.223 573.095L370.729 576.95L373.999 590.598L388.249 587.183ZM388.255 587.181L392.281 601.27L405.686 597.44L402.527 583.861L388.255 587.181ZM599.231 245.831L602.645 260.08C747.099 225.47 892.258 314.016 927.762 458.019L941.989 454.512L956.215 451.004C916.858 291.37 755.948 193.216 595.817 231.582L599.231 245.831ZM941.989 454.512L944.862 468.88L944.867 468.879L941.994 454.511L939.12 440.143L939.115 440.143L941.989 454.512ZM941.994 454.511L927.744 457.925L928.094 459.384L942.343 455.97L956.592 452.555L956.243 451.096L941.994 454.511ZM942.343 455.97L928.099 459.404C928.179 459.736 928.141 459.573 928.191 459.782L942.44 456.368L956.689 452.954C956.666 452.856 956.644 452.765 956.627 452.698C956.609 452.623 956.598 452.579 956.588 452.536L942.343 455.97ZM942.44 456.368L928.191 459.782C928.292 460.207 928.12 459.491 928.268 460.113L942.522 456.717L956.776 453.32C956.771 453.301 956.766 453.279 956.75 453.211C956.737 453.155 956.714 453.059 956.689 452.954L942.44 456.368ZM942.522 456.717L928.273 460.131L988.548 711.708L1002.8 708.294L1017.05 704.88L956.771 453.303L942.522 456.717ZM1002.8 708.294L988.558 711.747C988.66 712.171 988.673 712.216 988.739 712.493L1002.99 709.079L1017.24 705.665C1017.18 705.418 1017.06 704.94 1017.04 704.84L1002.8 708.294ZM1002.99 709.079L988.739 712.493C988.801 712.75 988.847 712.948 988.929 713.293L1003.19 709.922L1017.45 706.55C1017.4 706.334 1017.31 705.97 1017.24 705.665L1002.99 709.079ZM1003.19 709.922L988.939 713.336L989.987 717.709L1004.24 714.295L1018.49 710.88L1017.44 706.507L1003.19 709.922ZM1004.24 714.295L1000.96 700.012L1000.92 700.023L1004.19 714.306L1007.46 728.588L1007.51 728.577L1004.24 714.295ZM1004.19 714.306L989.879 717.456C1021.44 860.842 932.427 1003.68 789.039 1038.04L792.453 1052.29L795.867 1066.54C954.819 1028.45 1053.49 870.113 1018.5 711.155L1004.19 714.306ZM792.453 1052.29L789.039 1038.04C645.649 1072.39 501.564 985.401 464.724 843.277L450.541 846.954L436.357 850.63C477.197 1008.19 636.914 1104.62 795.867 1066.54L792.453 1052.29ZM450.541 846.954L446.921 832.755L446.871 832.768L450.491 846.967L454.11 861.165L454.16 861.153L450.541 846.954ZM450.491 846.967L464.74 843.553L402.498 583.769L388.249 587.183L373.999 590.598L436.241 850.381L450.491 846.967ZM388.249 587.183L392.274 601.272L392.281 601.27L388.255 587.181L384.23 573.093L384.223 573.095L388.249 587.183ZM388.255 587.181L402.527 583.861C368.918 439.404 458.19 294.69 602.645 260.08L599.231 245.831L595.817 231.582C435.686 269.948 336.727 430.365 373.984 590.502L388.255 587.181Z" fill="black" mask="url(#path-6-inside-1_6_345)"/>
<path d="M567.79 931.542C567.79 933.565 566.15 935.205 564.127 935.205C562.104 935.205 560.464 933.565 560.464 931.542C560.464 929.519 562.104 927.879 564.127 927.879C566.15 927.879 567.79 929.519 567.79 931.542Z" fill="black"/>
<path d="M758.274 957.184C758.274 959.207 756.634 960.848 754.611 960.848C752.588 960.848 750.948 959.207 750.948 957.184C750.948 955.161 752.588 953.521 754.611 953.521C756.634 953.521 758.274 955.161 758.274 957.184Z" fill="black"/>
<path d="M743.622 982.826C743.622 984.85 741.981 986.49 739.958 986.49C737.935 986.49 736.295 984.85 736.295 982.826C736.295 980.803 737.935 979.163 739.958 979.163C741.981 979.163 743.622 980.803 743.622 982.826Z" fill="black"/>
<path d="M816.885 975.5C816.885 977.523 815.245 979.163 813.222 979.163C811.198 979.163 809.558 977.523 809.558 975.5C809.558 973.477 811.198 971.837 813.222 971.837C815.245 971.837 816.885 973.477 816.885 975.5Z" fill="black"/>
<path d="M820.548 938.869C820.548 940.892 818.908 942.532 816.885 942.532C814.862 942.532 813.222 940.892 813.222 938.869C813.222 936.845 814.862 935.205 816.885 935.205C818.908 935.205 820.548 936.845 820.548 938.869Z" fill="black"/>
<path d="M893.811 957.184C893.811 959.207 892.171 960.848 890.148 960.848C888.125 960.848 886.485 959.207 886.485 957.184C886.485 955.161 888.125 953.521 890.148 953.521C892.171 953.521 893.811 955.161 893.811 957.184Z" fill="black"/>
<path d="M930.443 905.9C930.443 907.923 928.803 909.563 926.779 909.563C924.756 909.563 923.116 907.923 923.116 905.9C923.116 903.877 924.756 902.237 926.779 902.237C928.803 902.237 930.443 903.877 930.443 905.9Z" fill="black"/>
<path d="M531.158 854.616C531.158 856.639 529.518 858.279 527.495 858.279C525.472 858.279 523.832 856.639 523.832 854.616C523.832 852.593 525.472 850.953 527.495 850.953C529.518 850.953 531.158 852.593 531.158 854.616Z" fill="black"/>
<path d="M652.043 913.226C652.043 915.25 650.403 916.89 648.379 916.89C646.356 916.89 644.716 915.25 644.716 913.226C644.716 911.203 646.356 909.563 648.379 909.563C650.403 909.563 652.043 911.203 652.043 913.226Z" fill="black"/>
<path d="M641.053 986.49C641.053 988.513 639.413 990.153 637.39 990.153C635.367 990.153 633.727 988.513 633.727 986.49C633.727 984.467 635.367 982.826 637.39 982.826C639.413 982.826 641.053 984.467 641.053 986.49Z" fill="black"/>
<path d="M706.99 1001.14C706.99 1003.17 705.35 1004.81 703.327 1004.81C701.304 1004.81 699.664 1003.17 699.664 1001.14C699.664 999.119 701.304 997.479 703.327 997.479C705.35 997.479 706.99 999.119 706.99 1001.14Z" fill="black"/>
<path d="M831.537 905.9C831.537 907.923 829.897 909.563 827.874 909.563C825.851 909.563 824.211 907.923 824.211 905.9C824.211 903.877 825.851 902.237 827.874 902.237C829.897 902.237 831.537 903.877 831.537 905.9Z" fill="black"/>
<path d="M882.822 920.553C882.822 922.576 881.181 924.216 879.158 924.216C877.135 924.216 875.495 922.576 875.495 920.553C875.495 918.53 877.135 916.89 879.158 916.89C881.181 916.89 882.822 918.53 882.822 920.553Z" fill="black"/>
<path d="M853.516 982.826C853.516 984.85 851.876 986.49 849.853 986.49C847.83 986.49 846.19 984.85 846.19 982.826C846.19 980.803 847.83 979.163 849.853 979.163C851.876 979.163 853.516 980.803 853.516 982.826Z" fill="black"/>
<path d="M904.8 869.269C904.8 871.292 903.16 872.932 901.137 872.932C899.114 872.932 897.474 871.292 897.474 869.269C897.474 867.245 899.114 865.605 901.137 865.605C903.16 865.605 904.8 867.245 904.8 869.269Z" fill="black"/>
<path d="M564.127 876.595C564.127 878.618 562.487 880.258 560.464 880.258C558.441 880.258 556.8 878.618 556.8 876.595C556.8 874.572 558.441 872.932 560.464 872.932C562.487 872.932 564.127 874.572 564.127 876.595Z" fill="black"/>
<path d="M652.043 876.595C652.043 878.618 650.403 880.258 648.379 880.258C646.356 880.258 644.716 878.618 644.716 876.595C644.716 874.572 646.356 872.932 648.379 872.932C650.403 872.932 652.043 874.572 652.043 876.595Z" fill="black"/>
<path d="M652.043 810.658C652.043 812.681 650.403 814.321 648.379 814.321C646.356 814.321 644.716 812.681 644.716 810.658C644.716 808.635 646.356 806.995 648.379 806.995C650.403 806.995 652.043 808.635 652.043 810.658Z" fill="black"/>
<path d="M666.695 1008.47C666.695 1010.49 665.055 1012.13 663.032 1012.13C661.009 1012.13 659.369 1010.49 659.369 1008.47C659.369 1006.45 661.009 1004.81 663.032 1004.81C665.055 1004.81 666.695 1006.45 666.695 1008.47Z" fill="black"/>
<path d="M765.6 1008.47C765.6 1010.49 763.96 1012.13 761.937 1012.13C759.914 1012.13 758.274 1010.49 758.274 1008.47C758.274 1006.45 759.914 1004.81 761.937 1004.81C763.96 1004.81 765.6 1006.45 765.6 1008.47Z" fill="black"/>
<path d="M805.895 1008.47C805.895 1010.49 804.255 1012.13 802.232 1012.13C800.209 1012.13 798.569 1010.49 798.569 1008.47C798.569 1006.45 800.209 1004.81 802.232 1004.81C804.255 1004.81 805.895 1006.45 805.895 1008.47Z" fill="black"/>
<path d="M868.169 876.595C868.169 878.618 866.529 880.258 864.506 880.258C862.483 880.258 860.843 878.618 860.843 876.595C860.843 874.572 862.483 872.932 864.506 872.932C866.529 872.932 868.169 874.572 868.169 876.595Z" fill="black"/>
<path d="M868.169 810.658C868.169 812.681 866.529 814.321 864.506 814.321C862.483 814.321 860.843 812.681 860.843 810.658C860.843 808.635 862.483 806.995 864.506 806.995C866.529 806.995 868.169 808.635 868.169 810.658Z" fill="black"/>
<path d="M941.432 858.279C941.432 860.302 939.792 861.942 937.769 861.942C935.746 861.942 934.106 860.302 934.106 858.279C934.106 856.256 935.746 854.616 937.769 854.616C939.792 854.616 941.432 856.256 941.432 858.279Z" fill="black"/>
<path d="M575.116 828.974C575.116 830.997 573.476 832.637 571.453 832.637C569.43 832.637 567.79 830.997 567.79 828.974C567.79 826.951 569.43 825.311 571.453 825.311C573.476 825.311 575.116 826.951 575.116 828.974Z" fill="black"/>
<path d="M611.748 957.184C611.748 959.207 610.108 960.848 608.085 960.848C606.062 960.848 604.422 959.207 604.422 957.184C604.422 955.161 606.062 953.521 608.085 953.521C610.108 953.521 611.748 955.161 611.748 957.184Z" fill="black"/>
<path d="M597.095 982.826C597.095 984.85 595.455 986.49 593.432 986.49C591.409 986.49 589.769 984.85 589.769 982.826C589.769 980.803 591.409 979.163 593.432 979.163C595.455 979.163 597.095 980.803 597.095 982.826Z" fill="black"/>
<path d="M743.622 909.563C743.622 911.586 741.981 913.226 739.958 913.226C737.935 913.226 736.295 911.586 736.295 909.563C736.295 907.54 737.935 905.9 739.958 905.9C741.981 905.9 743.622 907.54 743.622 909.563Z" fill="black"/>
<path d="M787.579 916.89C787.579 918.913 785.939 920.553 783.916 920.553C781.893 920.553 780.253 918.913 780.253 916.89C780.253 914.867 781.893 913.226 783.916 913.226C785.939 913.226 787.579 914.867 787.579 916.89Z" fill="black"/>
<path d="M736.295 1026.78C736.295 1028.81 734.655 1030.45 732.632 1030.45C730.609 1030.45 728.969 1028.81 728.969 1026.78C728.969 1024.76 730.609 1023.12 732.632 1023.12C734.655 1023.12 736.295 1024.76 736.295 1026.78Z" fill="black"/>
<path d="M820.548 839.963C820.548 841.986 818.908 843.626 816.885 843.626C814.862 843.626 813.222 841.986 813.222 839.963C813.222 837.94 814.862 836.3 816.885 836.3C818.908 836.3 820.548 837.94 820.548 839.963Z" fill="black"/>
<path d="M820.548 774.026C820.548 776.05 818.908 777.69 816.885 777.69C814.862 777.69 813.222 776.05 813.222 774.026C813.222 772.003 814.862 770.363 816.885 770.363C818.908 770.363 820.548 772.003 820.548 774.026Z" fill="black"/>
<path d="M908.464 828.974C908.464 830.997 906.824 832.637 904.8 832.637C902.777 832.637 901.137 830.997 901.137 828.974C901.137 826.951 902.777 825.311 904.8 825.311C906.824 825.311 908.464 826.951 908.464 828.974Z" fill="black"/>
<path d="M934.106 792.342C934.106 794.365 932.466 796.005 930.443 796.005C928.419 796.005 926.779 794.365 926.779 792.342C926.779 790.319 928.419 788.679 930.443 788.679C932.466 788.679 934.106 790.319 934.106 792.342Z" fill="black"/>
<path d="M608.085 861.942C608.085 863.965 606.445 865.605 604.422 865.605C602.398 865.605 600.758 863.965 600.758 861.942C600.758 859.919 602.398 858.279 604.422 858.279C606.445 858.279 608.085 859.919 608.085 861.942Z" fill="black"/>
<path d="M608.085 902.237C608.085 904.26 606.445 905.9 604.422 905.9C602.398 905.9 600.758 904.26 600.758 902.237C600.758 900.214 602.398 898.574 604.422 898.574C606.445 898.574 608.085 900.214 608.085 902.237Z" fill="black"/>
<path d="M685.011 847.29C685.011 849.313 683.371 850.953 681.348 850.953C679.325 850.953 677.685 849.313 677.685 847.29C677.685 845.267 679.325 843.626 681.348 843.626C683.371 843.626 685.011 845.267 685.011 847.29Z" fill="black"/>
<path d="M685.011 781.353C685.011 783.376 683.371 785.016 681.348 785.016C679.325 785.016 677.685 783.376 677.685 781.353C677.685 779.33 679.325 777.69 681.348 777.69C683.371 777.69 685.011 779.33 685.011 781.353Z" fill="black"/>
<path d="M728.969 832.637C728.969 834.66 727.329 836.3 725.306 836.3C723.283 836.3 721.643 834.66 721.643 832.637C721.643 830.614 723.283 828.974 725.306 828.974C727.329 828.974 728.969 830.614 728.969 832.637Z" fill="black"/>
<path d="M772.927 810.658C772.927 812.681 771.287 814.321 769.264 814.321C767.241 814.321 765.6 812.681 765.6 810.658C765.6 808.635 767.241 806.995 769.264 806.995C771.287 806.995 772.927 808.635 772.927 810.658Z" fill="black"/>
<path d="M820.548 810.658C820.548 812.681 818.908 814.321 816.885 814.321C814.862 814.321 813.222 812.681 813.222 810.658C813.222 808.635 814.862 806.995 816.885 806.995C818.908 806.995 820.548 808.635 820.548 810.658Z" fill="black"/>
<path d="M868.169 810.658C868.169 812.681 866.529 814.321 864.506 814.321C862.483 814.321 860.843 812.681 860.843 810.658C860.843 808.635 862.483 806.995 864.506 806.995C866.529 806.995 868.169 808.635 868.169 810.658Z" fill="black"/>
<path d="M963.411 810.658C963.411 812.681 961.771 814.321 959.748 814.321C957.725 814.321 956.085 812.681 956.085 810.658C956.085 808.635 957.725 806.995 959.748 806.995C961.771 806.995 963.411 808.635 963.411 810.658Z" fill="black"/>
<path d="M677.685 957.184C677.685 959.207 676.045 960.848 674.022 960.848C671.998 960.848 670.358 959.207 670.358 957.184C670.358 955.161 671.998 953.521 674.022 953.521C676.045 953.521 677.685 955.161 677.685 957.184Z" fill="black"/>
<path d="M717.979 935.205C717.979 937.229 716.339 938.869 714.316 938.869C712.293 938.869 710.653 937.229 710.653 935.205C710.653 933.182 712.293 931.542 714.316 931.542C716.339 931.542 717.979 933.182 717.979 935.205Z" fill="black"/>
<path d="M703.327 905.9C703.327 907.923 701.687 909.563 699.664 909.563C697.641 909.563 696 907.923 696 905.9C696 903.877 697.641 902.237 699.664 902.237C701.687 902.237 703.327 903.877 703.327 905.9Z" fill="black"/>
<path d="M791.243 872.932C791.243 874.955 789.603 876.595 787.579 876.595C785.556 876.595 783.916 874.955 783.916 872.932C783.916 870.909 785.556 869.269 787.579 869.269C789.603 869.269 791.243 870.909 791.243 872.932Z" fill="black"/>
<path d="M611.748 806.995C611.748 809.018 610.108 810.658 608.085 810.658C606.062 810.658 604.422 809.018 604.422 806.995C604.422 804.972 606.062 803.332 608.085 803.332C610.108 803.332 611.748 804.972 611.748 806.995Z" fill="black"/>
<path d="M747.285 865.605C747.285 867.629 745.645 869.269 743.622 869.269C741.598 869.269 739.958 867.629 739.958 865.605C739.958 863.582 741.598 861.942 743.622 861.942C745.645 861.942 747.285 863.582 747.285 865.605Z" fill="black"/>
<path d="M747.285 799.669C747.285 801.692 745.645 803.332 743.622 803.332C741.598 803.332 739.958 801.692 739.958 799.669C739.958 797.645 741.598 796.005 743.622 796.005C745.645 796.005 747.285 797.645 747.285 799.669Z" fill="black"/>
<path d="M875.495 850.953C875.495 852.976 873.855 854.616 871.832 854.616C869.809 854.616 868.169 852.976 868.169 850.953C868.169 848.93 869.809 847.29 871.832 847.29C873.855 847.29 875.495 848.93 875.495 850.953Z" fill="black"/>
<path d="M875.495 785.016C875.495 787.039 873.855 788.679 871.832 788.679C869.809 788.679 868.169 787.039 868.169 785.016C868.169 782.993 869.809 781.353 871.832 781.353C873.855 781.353 875.495 782.993 875.495 785.016Z" fill="black"/>
<path d="M901.137 792.342C901.137 794.365 899.497 796.005 897.474 796.005C895.451 796.005 893.811 794.365 893.811 792.342C893.811 790.319 895.451 788.679 897.474 788.679C899.497 788.679 901.137 790.319 901.137 792.342Z" fill="black"/>
<path d="M956.085 759.374C956.085 761.397 954.445 763.037 952.422 763.037C950.398 763.037 948.758 761.397 948.758 759.374C948.758 757.351 950.398 755.711 952.422 755.711C954.445 755.711 956.085 757.351 956.085 759.374Z" fill="black"/>
<path d="M567.79 931.542C567.79 933.565 566.15 935.205 564.127 935.205C562.104 935.205 560.464 933.565 560.464 931.542C560.464 929.519 562.104 927.879 564.127 927.879C566.15 927.879 567.79 929.519 567.79 931.542Z" stroke="black" stroke-width="3.66316"/>
<path d="M758.274 957.184C758.274 959.207 756.634 960.848 754.611 960.848C752.588 960.848 750.948 959.207 750.948 957.184C750.948 955.161 752.588 953.521 754.611 953.521C756.634 953.521 758.274 955.161 758.274 957.184Z" stroke="black" stroke-width="3.66316"/>
<path d="M743.622 982.826C743.622 984.85 741.981 986.49 739.958 986.49C737.935 986.49 736.295 984.85 736.295 982.826C736.295 980.803 737.935 979.163 739.958 979.163C741.981 979.163 743.622 980.803 743.622 982.826Z" stroke="black" stroke-width="3.66316"/>
<path d="M816.885 975.5C816.885 977.523 815.245 979.163 813.222 979.163C811.198 979.163 809.558 977.523 809.558 975.5C809.558 973.477 811.198 971.837 813.222 971.837C815.245 971.837 816.885 973.477 816.885 975.5Z" stroke="black" stroke-width="3.66316"/>
<path d="M820.548 938.869C820.548 940.892 818.908 942.532 816.885 942.532C814.862 942.532 813.222 940.892 813.222 938.869C813.222 936.845 814.862 935.205 816.885 935.205C818.908 935.205 820.548 936.845 820.548 938.869Z" stroke="black" stroke-width="3.66316"/>
<path d="M893.811 957.184C893.811 959.207 892.171 960.848 890.148 960.848C888.125 960.848 886.485 959.207 886.485 957.184C886.485 955.161 888.125 953.521 890.148 953.521C892.171 953.521 893.811 955.161 893.811 957.184Z" stroke="black" stroke-width="3.66316"/>
<path d="M930.443 905.9C930.443 907.923 928.803 909.563 926.779 909.563C924.756 909.563 923.116 907.923 923.116 905.9C923.116 903.877 924.756 902.237 926.779 902.237C928.803 902.237 930.443 903.877 930.443 905.9Z" stroke="black" stroke-width="3.66316"/>
<path d="M531.158 854.616C531.158 856.639 529.518 858.279 527.495 858.279C525.472 858.279 523.832 856.639 523.832 854.616C523.832 852.593 525.472 850.953 527.495 850.953C529.518 850.953 531.158 852.593 531.158 854.616Z" stroke="black" stroke-width="3.66316"/>
<path d="M652.043 913.226C652.043 915.25 650.403 916.89 648.379 916.89C646.356 916.89 644.716 915.25 644.716 913.226C644.716 911.203 646.356 909.563 648.379 909.563C650.403 909.563 652.043 911.203 652.043 913.226Z" stroke="black" stroke-width="3.66316"/>
<path d="M641.053 986.49C641.053 988.513 639.413 990.153 637.39 990.153C635.367 990.153 633.727 988.513 633.727 986.49C633.727 984.467 635.367 982.826 637.39 982.826C639.413 982.826 641.053 984.467 641.053 986.49Z" stroke="black" stroke-width="3.66316"/>
<path d="M706.99 1001.14C706.99 1003.17 705.35 1004.81 703.327 1004.81C701.304 1004.81 699.664 1003.17 699.664 1001.14C699.664 999.119 701.304 997.479 703.327 997.479C705.35 997.479 706.99 999.119 706.99 1001.14Z" stroke="black" stroke-width="3.66316"/>
<path d="M831.537 905.9C831.537 907.923 829.897 909.563 827.874 909.563C825.851 909.563 824.211 907.923 824.211 905.9C824.211 903.877 825.851 902.237 827.874 902.237C829.897 902.237 831.537 903.877 831.537 905.9Z" stroke="black" stroke-width="3.66316"/>
<path d="M882.822 920.553C882.822 922.576 881.181 924.216 879.158 924.216C877.135 924.216 875.495 922.576 875.495 920.553C875.495 918.53 877.135 916.89 879.158 916.89C881.181 916.89 882.822 918.53 882.822 920.553Z" stroke="black" stroke-width="3.66316"/>
<path d="M853.516 982.826C853.516 984.85 851.876 986.49 849.853 986.49C847.83 986.49 846.19 984.85 846.19 982.826C846.19 980.803 847.83 979.163 849.853 979.163C851.876 979.163 853.516 980.803 853.516 982.826Z" stroke="black" stroke-width="3.66316"/>
<path d="M904.8 869.269C904.8 871.292 903.16 872.932 901.137 872.932C899.114 872.932 897.474 871.292 897.474 869.269C897.474 867.245 899.114 865.605 901.137 865.605C903.16 865.605 904.8 867.245 904.8 869.269Z" stroke="black" stroke-width="3.66316"/>
<path d="M564.127 876.595C564.127 878.618 562.487 880.258 560.464 880.258C558.441 880.258 556.8 878.618 556.8 876.595C556.8 874.572 558.441 872.932 560.464 872.932C562.487 872.932 564.127 874.572 564.127 876.595Z" stroke="black" stroke-width="3.66316"/>
<path d="M652.043 876.595C652.043 878.618 650.403 880.258 648.379 880.258C646.356 880.258 644.716 878.618 644.716 876.595C644.716 874.572 646.356 872.932 648.379 872.932C650.403 872.932 652.043 874.572 652.043 876.595Z" stroke="black" stroke-width="3.66316"/>
<path d="M652.043 810.658C652.043 812.681 650.403 814.321 648.379 814.321C646.356 814.321 644.716 812.681 644.716 810.658C644.716 808.635 646.356 806.995 648.379 806.995C650.403 806.995 652.043 808.635 652.043 810.658Z" stroke="black" stroke-width="3.66316"/>
<path d="M666.695 1008.47C666.695 1010.49 665.055 1012.13 663.032 1012.13C661.009 1012.13 659.369 1010.49 659.369 1008.47C659.369 1006.45 661.009 1004.81 663.032 1004.81C665.055 1004.81 666.695 1006.45 666.695 1008.47Z" stroke="black" stroke-width="3.66316"/>
<path d="M765.6 1008.47C765.6 1010.49 763.96 1012.13 761.937 1012.13C759.914 1012.13 758.274 1010.49 758.274 1008.47C758.274 1006.45 759.914 1004.81 761.937 1004.81C763.96 1004.81 765.6 1006.45 765.6 1008.47Z" stroke="black" stroke-width="3.66316"/>
<path d="M805.895 1008.47C805.895 1010.49 804.255 1012.13 802.232 1012.13C800.209 1012.13 798.569 1010.49 798.569 1008.47C798.569 1006.45 800.209 1004.81 802.232 1004.81C804.255 1004.81 805.895 1006.45 805.895 1008.47Z" stroke="black" stroke-width="3.66316"/>
<path d="M868.169 876.595C868.169 878.618 866.529 880.258 864.506 880.258C862.483 880.258 860.843 878.618 860.843 876.595C860.843 874.572 862.483 872.932 864.506 872.932C866.529 872.932 868.169 874.572 868.169 876.595Z" stroke="black" stroke-width="3.66316"/>
<path d="M868.169 810.658C868.169 812.681 866.529 814.321 864.506 814.321C862.483 814.321 860.843 812.681 860.843 810.658C860.843 808.635 862.483 806.995 864.506 806.995C866.529 806.995 868.169 808.635 868.169 810.658Z" stroke="black" stroke-width="3.66316"/>
<path d="M941.432 858.279C941.432 860.302 939.792 861.942 937.769 861.942C935.746 861.942 934.106 860.302 934.106 858.279C934.106 856.256 935.746 854.616 937.769 854.616C939.792 854.616 941.432 856.256 941.432 858.279Z" stroke="black" stroke-width="3.66316"/>
<path d="M575.116 828.974C575.116 830.997 573.476 832.637 571.453 832.637C569.43 832.637 567.79 830.997 567.79 828.974C567.79 826.951 569.43 825.311 571.453 825.311C573.476 825.311 575.116 826.951 575.116 828.974Z" stroke="black" stroke-width="3.66316"/>
<path d="M611.748 957.184C611.748 959.207 610.108 960.848 608.085 960.848C606.062 960.848 604.422 959.207 604.422 957.184C604.422 955.161 606.062 953.521 608.085 953.521C610.108 953.521 611.748 955.161 611.748 957.184Z" stroke="black" stroke-width="3.66316"/>
<path d="M597.095 982.826C597.095 984.85 595.455 986.49 593.432 986.49C591.409 986.49 589.769 984.85 589.769 982.826C589.769 980.803 591.409 979.163 593.432 979.163C595.455 979.163 597.095 980.803 597.095 982.826Z" stroke="black" stroke-width="3.66316"/>
<path d="M743.622 909.563C743.622 911.586 741.981 913.226 739.958 913.226C737.935 913.226 736.295 911.586 736.295 909.563C736.295 907.54 737.935 905.9 739.958 905.9C741.981 905.9 743.622 907.54 743.622 909.563Z" stroke="black" stroke-width="3.66316"/>
<path d="M787.579 916.89C787.579 918.913 785.939 920.553 783.916 920.553C781.893 920.553 780.253 918.913 780.253 916.89C780.253 914.867 781.893 913.226 783.916 913.226C785.939 913.226 787.579 914.867 787.579 916.89Z" stroke="black" stroke-width="3.66316"/>
<path d="M736.295 1026.78C736.295 1028.81 734.655 1030.45 732.632 1030.45C730.609 1030.45 728.969 1028.81 728.969 1026.78C728.969 1024.76 730.609 1023.12 732.632 1023.12C734.655 1023.12 736.295 1024.76 736.295 1026.78Z" stroke="black" stroke-width="3.66316"/>
<path d="M820.548 839.963C820.548 841.986 818.908 843.626 816.885 843.626C814.862 843.626 813.222 841.986 813.222 839.963C813.222 837.94 814.862 836.3 816.885 836.3C818.908 836.3 820.548 837.94 820.548 839.963Z" stroke="black" stroke-width="3.66316"/>
<path d="M820.548 774.026C820.548 776.05 818.908 777.69 816.885 777.69C814.862 777.69 813.222 776.05 813.222 774.026C813.222 772.003 814.862 770.363 816.885 770.363C818.908 770.363 820.548 772.003 820.548 774.026Z" stroke="black" stroke-width="3.66316"/>
<path d="M908.464 828.974C908.464 830.997 906.824 832.637 904.8 832.637C902.777 832.637 901.137 830.997 901.137 828.974C901.137 826.951 902.777 825.311 904.8 825.311C906.824 825.311 908.464 826.951 908.464 828.974Z" stroke="black" stroke-width="3.66316"/>
<path d="M934.106 792.342C934.106 794.365 932.466 796.005 930.443 796.005C928.419 796.005 926.779 794.365 926.779 792.342C926.779 790.319 928.419 788.679 930.443 788.679C932.466 788.679 934.106 790.319 934.106 792.342Z" stroke="black" stroke-width="3.66316"/>
<path d="M608.085 861.942C608.085 863.965 606.445 865.605 604.422 865.605C602.398 865.605 600.758 863.965 600.758 861.942C600.758 859.919 602.398 858.279 604.422 858.279C606.445 858.279 608.085 859.919 608.085 861.942Z" stroke="black" stroke-width="3.66316"/>
<path d="M608.085 902.237C608.085 904.26 606.445 905.9 604.422 905.9C602.398 905.9 600.758 904.26 600.758 902.237C600.758 900.214 602.398 898.574 604.422 898.574C606.445 898.574 608.085 900.214 608.085 902.237Z" stroke="black" stroke-width="3.66316"/>
<path d="M685.011 847.29C685.011 849.313 683.371 850.953 681.348 850.953C679.325 850.953 677.685 849.313 677.685 847.29C677.685 845.267 679.325 843.626 681.348 843.626C683.371 843.626 685.011 845.267 685.011 847.29Z" stroke="black" stroke-width="3.66316"/>
<path d="M685.011 781.353C685.011 783.376 683.371 785.016 681.348 785.016C679.325 785.016 677.685 783.376 677.685 781.353C677.685 779.33 679.325 777.69 681.348 777.69C683.371 777.69 685.011 779.33 685.011 781.353Z" stroke="black" stroke-width="3.66316"/>
<path d="M728.969 832.637C728.969 834.66 727.329 836.3 725.306 836.3C723.283 836.3 721.643 834.66 721.643 832.637C721.643 830.614 723.283 828.974 725.306 828.974C727.329 828.974 728.969 830.614 728.969 832.637Z" stroke="black" stroke-width="3.66316"/>
<path d="M772.927 810.658C772.927 812.681 771.287 814.321 769.264 814.321C767.241 814.321 765.6 812.681 765.6 810.658C765.6 808.635 767.241 806.995 769.264 806.995C771.287 806.995 772.927 808.635 772.927 810.658Z" stroke="black" stroke-width="3.66316"/>
<path d="M820.548 810.658C820.548 812.681 818.908 814.321 816.885 814.321C814.862 814.321 813.222 812.681 813.222 810.658C813.222 808.635 814.862 806.995 816.885 806.995C818.908 806.995 820.548 808.635 820.548 810.658Z" stroke="black" stroke-width="3.66316"/>
<path d="M868.169 810.658C868.169 812.681 866.529 814.321 864.506 814.321C862.483 814.321 860.843 812.681 860.843 810.658C860.843 808.635 862.483 806.995 864.506 806.995C866.529 806.995 868.169 808.635 868.169 810.658Z" stroke="black" stroke-width="3.66316"/>
<path d="M963.411 810.658C963.411 812.681 961.771 814.321 959.748 814.321C957.725 814.321 956.085 812.681 956.085 810.658C956.085 808.635 957.725 806.995 959.748 806.995C961.771 806.995 963.411 808.635 963.411 810.658Z" stroke="black" stroke-width="3.66316"/>
<path d="M677.685 957.184C677.685 959.207 676.045 960.848 674.022 960.848C671.998 960.848 670.358 959.207 670.358 957.184C670.358 955.161 671.998 953.521 674.022 953.521C676.045 953.521 677.685 955.161 677.685 957.184Z" stroke="black" stroke-width="3.66316"/>
<path d="M717.979 935.205C717.979 937.229 716.339 938.869 714.316 938.869C712.293 938.869 710.653 937.229 710.653 935.205C710.653 933.182 712.293 931.542 714.316 931.542C716.339 931.542 717.979 933.182 717.979 935.205Z" stroke="black" stroke-width="3.66316"/>
<path d="M703.327 905.9C703.327 907.923 701.687 909.563 699.664 909.563C697.641 909.563 696 907.923 696 905.9C696 903.877 697.641 902.237 699.664 902.237C701.687 902.237 703.327 903.877 703.327 905.9Z" stroke="black" stroke-width="3.66316"/>
<path d="M791.243 872.932C791.243 874.955 789.603 876.595 787.579 876.595C785.556 876.595 783.916 874.955 783.916 872.932C783.916 870.909 785.556 869.269 787.579 869.269C789.603 869.269 791.243 870.909 791.243 872.932Z" stroke="black" stroke-width="3.66316"/>
<path d="M611.748 806.995C611.748 809.018 610.108 810.658 608.085 810.658C606.062 810.658 604.422 809.018 604.422 806.995C604.422 804.972 606.062 803.332 608.085 803.332C610.108 803.332 611.748 804.972 611.748 806.995Z" stroke="black" stroke-width="3.66316"/>
<path d="M747.285 865.605C747.285 867.629 745.645 869.269 743.622 869.269C741.598 869.269 739.958 867.629 739.958 865.605C739.958 863.582 741.598 861.942 743.622 861.942C745.645 861.942 747.285 863.582 747.285 865.605Z" stroke="black" stroke-width="3.66316"/>
<path d="M747.285 799.669C747.285 801.692 745.645 803.332 743.622 803.332C741.598 803.332 739.958 801.692 739.958 799.669C739.958 797.645 741.598 796.005 743.622 796.005C745.645 796.005 747.285 797.645 747.285 799.669Z" stroke="black" stroke-width="3.66316"/>
<path d="M875.495 850.953C875.495 852.976 873.855 854.616 871.832 854.616C869.809 854.616 868.169 852.976 868.169 850.953C868.169 848.93 869.809 847.29 871.832 847.29C873.855 847.29 875.495 848.93 875.495 850.953Z" stroke="black" stroke-width="3.66316"/>
<path d="M875.495 785.016C875.495 787.039 873.855 788.679 871.832 788.679C869.809 788.679 868.169 787.039 868.169 785.016C868.169 782.993 869.809 781.353 871.832 781.353C873.855 781.353 875.495 782.993 875.495 785.016Z" stroke="black" stroke-width="3.66316"/>
<path d="M901.137 792.342C901.137 794.365 899.497 796.005 897.474 796.005C895.451 796.005 893.811 794.365 893.811 792.342C893.811 790.319 895.451 788.679 897.474 788.679C899.497 788.679 901.137 790.319 901.137 792.342Z" stroke="black" stroke-width="3.66316"/>
<path d="M956.085 759.374C956.085 761.397 954.445 763.037 952.422 763.037C950.398 763.037 948.758 761.397 948.758 759.374C948.758 757.351 950.398 755.711 952.422 755.711C954.445 755.711 956.085 757.351 956.085 759.374Z" stroke="black" stroke-width="3.66316"/>
</g>
<rect x="634.636" y="807.62" width="256.421" height="87.9158" rx="14.6526" transform="rotate(-4 634.636 807.62)" fill="black"/>
<path d="M864.411 817.682C863.176 828.172 854.653 836.3 844.116 837.037C854.653 836.3 864.224 843.162 866.907 853.377L873.647 879.037L663.685 893.719L666.79 867.371C668.025 856.881 676.548 848.754 687.085 848.017C676.548 848.754 666.977 841.891 664.294 831.676L657.553 806.017L867.515 791.335L864.411 817.682Z" fill="white"/>
<path d="M872.123 786.293C885.252 783.475 897.997 792.885 898.941 806.387L902.673 859.758C903.617 873.26 892.306 884.351 878.912 883.387C852.963 881.52 803.451 878.699 768.303 881.157C733.153 883.615 684.516 893.299 659.079 898.76C645.95 901.578 633.205 892.169 632.26 878.667L628.528 825.296C627.584 811.794 638.896 800.702 652.289 801.666C678.239 803.533 727.751 806.355 762.9 803.897C798.049 801.439 846.686 791.754 872.123 786.293Z" stroke="black" stroke-width="14.6526"/>
<path d="M538.484 543.98C561.074 553.138 615.777 554.97 653.874 489.033" stroke="black" stroke-width="14.6526" stroke-linecap="round"/>
<path d="M783.916 461.559C802.842 481.096 850.219 508.448 888.316 461.559" stroke="black" stroke-width="14.6526" stroke-linecap="round"/>
<path d="M728.969 318.694C782.696 316.252 876.961 286.458 824.211 186.821" stroke="black" stroke-width="14.6526"/>
<path d="M633.727 311.368C687.454 308.926 781.719 279.132 728.969 179.494" stroke="black" stroke-width="14.6526"/>
<path d="M501.854 351.663C555.58 349.221 649.845 319.427 597.096 219.789" stroke="black" stroke-width="14.6526"/>
<ellipse cx="617.52" cy="616.972" rx="32.9684" ry="49.4526" transform="rotate(-6.77646 617.52 616.972)" fill="black"/>
<ellipse cx="851.963" cy="580.34" rx="32.9684" ry="49.4526" transform="rotate(-6.27568 851.963 580.34)" fill="black"/>
<path d="M527.563 618.026L406.61 639.561" stroke="black" stroke-width="14.6526" stroke-linecap="round"/>
<path d="M532.783 540.711L665.542 523.411C677.579 521.843 688.812 530.301 690.632 542.302L709.172 664.617C710.991 676.619 702.707 687.619 690.67 689.187L572.045 704.645C560.974 706.088 550.406 699.025 547.477 688.224L514.802 567.751C511.356 555.043 519.758 542.408 532.783 540.711Z" stroke="black" stroke-width="14.6526"/>
<path d="M916.618 491.365L783.859 508.665C771.822 510.233 763.538 521.235 765.357 533.236L783.898 655.551C785.717 667.553 796.95 676.01 808.987 674.441L927.612 658.983C938.683 657.541 946.742 648.051 946.347 636.919L941.941 512.762C941.476 499.666 929.643 489.668 916.618 491.365Z" stroke="black" stroke-width="14.6526"/>
<path d="M699.353 600.553L776.482 589.176" stroke="black" stroke-width="14.6526"/>
<path d="M744.446 619.106C751.583 669.891 782.584 706.225 782.584 706.225C782.584 706.225 772.946 729.774 735.652 727.617" stroke="black" stroke-width="14.6526"/>
<path d="M456.064 660.012C447.529 657.202 438.315 655.706 428.883 655.706C390.444 655.706 359.283 679.516 362.946 723.474C366.762 769.264 394.107 785.748 432.546 785.748C436.823 785.748 441.01 785.372 445.074 784.653C449.509 783.868 453.797 782.674 457.895 781.113" stroke="black" stroke-width="29.3053"/>
<path d="M459.727 780.386C451.376 783.838 442.19 785.748 432.546 785.748C394.107 785.748 366.762 769.264 362.946 723.474C359.283 679.516 390.444 655.706 428.883 655.706C440.376 655.706 451.546 657.927 461.559 662.041L459.727 780.386Z" fill="#F9C9B6"/>
<path d="M445.074 686.844C430.422 680.129 398.186 676.588 386.464 716.15" stroke="black" stroke-width="14.6526"/>
<path d="M406.611 688.674C414.548 695.39 429.689 716.148 426.758 745.453" stroke="black" stroke-width="14.6526"/>
<path d="M674.02 1175.66C708.657 1175.66 735.611 1180.94 761.189 1187.91C786.347 1194.77 811.85 1203.82 840.886 1210.49L841.399 1210.61L841.924 1210.65C1010.89 1224.59 1112.21 1299.64 1185.74 1402.99H184.53C244.238 1295.51 329.163 1227.09 466.849 1195.7C525.509 1182.33 593.844 1175.66 674.02 1175.66Z" fill="#F4D150" stroke="black" stroke-width="14.6526"/>
<path d="M424.668 1203.65L458.198 1131.86C458.999 1130.15 460.989 1129.33 462.773 1129.96C601.703 1179.14 728.092 1175.68 845.219 1143.07C846.694 1142.66 848.268 1143.21 849.172 1144.44L900.208 1214.23C901.611 1216.15 900.896 1218.86 898.684 1219.72C775.575 1268.07 544.572 1259.85 426.444 1208.49C424.57 1207.68 423.804 1205.5 424.668 1203.65Z" fill="white" stroke="black" stroke-width="14.6526"/>
</g>
<defs>
<clipPath id="clip0_6_345">
<rect width="732.632" height="1172.21" fill="white" transform="translate(329.685 157.517)"/>
</clipPath>
</defs>
</svg>
