<svg width="1392" height="1392" viewBox="0 0 1392 1392" fill="none" xmlns="http://www.w3.org/2000/svg">
<circle cx="696" cy="696" r="696" fill="#F4D150"/>
<mask id="mask0_6_318" style="mask-type:alpha" maskUnits="userSpaceOnUse" x="0" y="0" width="1392" height="1392">
<circle cx="696" cy="696" r="696" fill="#FFEDEF"/>
</mask>
<g mask="url(#mask0_6_318)">
<path d="M893.695 1364.4C840.945 1291.14 799.674 1112.87 794.79 1042.05L543.863 933.981L439.463 1364.4H893.695Z" fill="#FC909F" stroke="black" stroke-width="14.6526"/>
<mask id="mask1_6_318" style="mask-type:alpha" maskUnits="userSpaceOnUse" x="439" y="933" width="455" height="432">
<path d="M893.695 1364.4C840.945 1291.14 799.674 1112.87 794.79 1042.05L543.863 933.981L439.463 1364.4H893.695Z" fill="#FFEDEF"/>
</mask>
<g mask="url(#mask1_6_318)">
<ellipse cx="783.916" cy="926.781" rx="216.126" ry="197.811" fill="black"/>
</g>
<g clip-path="url(#clip0_6_318)">
<path d="M893.695 1327.77C840.946 1254.51 799.674 1112.87 794.79 1042.04L543.864 933.98L439.464 1327.77H893.695Z" fill="#F9C9B6" stroke="black" stroke-width="14.6526"/>
<mask id="mask2_6_318" style="mask-type:alpha" maskUnits="userSpaceOnUse" x="439" y="933" width="455" height="432">
<path d="M893.695 1364.4C840.946 1291.14 799.674 1112.87 794.79 1042.04L543.864 933.98L439.464 1364.4H893.695Z" fill="#F9C9B6"/>
</mask>
<g mask="url(#mask2_6_318)">
<ellipse cx="783.916" cy="926.78" rx="216.126" ry="197.811" fill="black"/>
</g>
<mask id="path-9-inside-1_6_318" fill="white">
<path d="M599.231 245.831C751.524 209.343 904.558 302.693 941.989 454.512L941.994 454.511L942.343 455.97C942.375 456.102 942.408 456.235 942.44 456.368C942.468 456.484 942.494 456.601 942.522 456.717L1002.8 708.294C1002.86 708.556 1002.93 708.817 1002.99 709.079C1003.06 709.36 1003.12 709.641 1003.19 709.922L1004.24 714.295L1004.19 714.306C1037.47 865.478 943.623 1016.07 792.453 1052.29C641.282 1088.51 489.38 996.794 450.541 846.954L450.491 846.967L388.249 587.183L388.255 587.181C352.823 434.884 446.938 282.319 599.231 245.831Z"/>
</mask>
<path d="M599.231 245.831C751.524 209.343 904.558 302.693 941.989 454.512L941.994 454.511L942.343 455.97C942.375 456.102 942.408 456.235 942.44 456.368C942.468 456.484 942.494 456.601 942.522 456.717L1002.8 708.294C1002.86 708.556 1002.93 708.817 1002.99 709.079C1003.06 709.36 1003.12 709.641 1003.19 709.922L1004.24 714.295L1004.19 714.306C1037.47 865.478 943.623 1016.07 792.453 1052.29C641.282 1088.51 489.38 996.794 450.541 846.954L450.491 846.967L388.249 587.183L388.255 587.181C352.823 434.884 446.938 282.319 599.231 245.831Z" fill="#F9C9B6"/>
<path d="M599.231 245.831L595.817 231.582L595.817 231.582L599.231 245.831ZM941.989 454.512L927.762 458.019L931.118 471.629L944.862 468.88L941.989 454.512ZM941.994 454.511L956.243 451.096L952.955 437.376L939.12 440.143L941.994 454.511ZM942.343 455.97L928.094 459.384L928.096 459.394L928.099 459.404L942.343 455.97ZM942.44 456.368L956.689 452.954V452.954L942.44 456.368ZM942.522 456.717L928.268 460.113L928.27 460.122L928.273 460.131L942.522 456.717ZM1002.8 708.294L988.548 711.708L988.553 711.728L988.558 711.747L1002.8 708.294ZM1002.99 709.079L1017.24 705.665V705.665L1002.99 709.079ZM1003.19 709.922L988.929 713.293L988.934 713.315L988.939 713.336L1003.19 709.922ZM1004.24 714.295L1007.51 728.577L1021.93 725.272L1018.49 710.88L1004.24 714.295ZM1004.19 714.306L1000.92 700.023L986.756 703.268L989.879 717.456L1004.19 714.306ZM792.453 1052.29L795.867 1066.54V1066.54L792.453 1052.29ZM450.541 846.954L464.724 843.277L461.063 829.151L446.921 832.755L450.541 846.954ZM450.491 846.967L436.241 850.381L439.705 864.837L454.11 861.165L450.491 846.967ZM388.249 587.183L384.223 573.095L370.729 576.95L373.999 590.598L388.249 587.183ZM388.255 587.181L392.281 601.27L405.686 597.44L402.527 583.861L388.255 587.181ZM599.231 245.831L602.645 260.08C747.099 225.47 892.258 314.016 927.762 458.019L941.989 454.512L956.215 451.004C916.858 291.37 755.948 193.216 595.817 231.582L599.231 245.831ZM941.989 454.512L944.862 468.88L944.867 468.879L941.994 454.511L939.12 440.143L939.115 440.143L941.989 454.512ZM941.994 454.511L927.744 457.925L928.094 459.384L942.343 455.97L956.592 452.555L956.243 451.096L941.994 454.511ZM942.343 455.97L928.099 459.404C928.179 459.736 928.141 459.573 928.191 459.782L942.44 456.368L956.689 452.954C956.666 452.856 956.644 452.765 956.627 452.698C956.609 452.623 956.598 452.579 956.588 452.536L942.343 455.97ZM942.44 456.368L928.191 459.782C928.292 460.207 928.12 459.491 928.268 460.113L942.522 456.717L956.775 453.32C956.771 453.301 956.766 453.279 956.75 453.211C956.737 453.155 956.714 453.059 956.689 452.954L942.44 456.368ZM942.522 456.717L928.273 460.131L988.548 711.708L1002.8 708.294L1017.05 704.88L956.771 453.303L942.522 456.717ZM1002.8 708.294L988.558 711.747C988.66 712.171 988.673 712.216 988.739 712.493L1002.99 709.079L1017.24 705.665C1017.18 705.418 1017.06 704.94 1017.04 704.84L1002.8 708.294ZM1002.99 709.079L988.739 712.493C988.801 712.75 988.847 712.948 988.929 713.293L1003.19 709.922L1017.45 706.55C1017.4 706.334 1017.31 705.97 1017.24 705.665L1002.99 709.079ZM1003.19 709.922L988.939 713.336L989.987 717.709L1004.24 714.295L1018.49 710.88L1017.44 706.507L1003.19 709.922ZM1004.24 714.295L1000.96 700.012L1000.92 700.023L1004.19 714.306L1007.46 728.588L1007.51 728.577L1004.24 714.295ZM1004.19 714.306L989.879 717.456C1021.44 860.842 932.427 1003.68 789.039 1038.04L792.453 1052.29L795.867 1066.54C954.819 1028.45 1053.49 870.113 1018.5 711.155L1004.19 714.306ZM792.453 1052.29L789.039 1038.04C645.649 1072.39 501.564 985.401 464.724 843.277L450.541 846.954L436.357 850.63C477.197 1008.19 636.914 1104.62 795.867 1066.54L792.453 1052.29ZM450.541 846.954L446.921 832.755L446.871 832.768L450.491 846.967L454.11 861.165L454.16 861.153L450.541 846.954ZM450.491 846.967L464.74 843.553L402.498 583.769L388.249 587.183L373.999 590.598L436.241 850.381L450.491 846.967ZM388.249 587.183L392.274 601.272L392.281 601.27L388.255 587.181L384.23 573.093L384.223 573.095L388.249 587.183ZM388.255 587.181L402.527 583.861C368.918 439.404 458.19 294.69 602.645 260.08L599.231 245.831L595.817 231.582C435.686 269.948 336.727 430.365 373.984 590.502L388.255 587.181Z" fill="black" mask="url(#path-9-inside-1_6_318)"/>
</g>
<path d="M657.538 807.727C666.695 870 771.095 899.306 866.338 827.874" stroke="black" stroke-width="14.6526"/>
<path d="M802.232 484.323C822.99 474.554 871.832 465.641 901.137 508.133" stroke="black" stroke-width="14.6526" stroke-linecap="round"/>
<path d="M525.953 577.025C533.538 555.374 561.42 514.294 612.267 523.182" stroke="black" stroke-width="14.6526" stroke-linecap="round"/>
<path d="M499.385 205.836C566.697 178.56 633.528 173.78 669.582 177.622L669.861 177.651L670.143 177.66C767.836 180.533 843.781 219.411 897.524 266.858C949.013 312.314 979.759 365.301 989.786 401.415C974.914 409.903 949.439 417.208 916.945 423.199C881.502 429.733 838.946 434.505 795.524 437.907C708.683 444.71 618.997 445.985 577.107 445.075L554.86 444.591L572.468 458.197C581.617 465.266 593.795 470.187 606.676 473.647C619.65 477.132 633.853 479.27 647.452 480.485C661.459 481.736 675.116 482.03 686.429 481.741C647.648 511.639 598.288 534.63 549.617 551.67C493.402 571.352 438.734 582.882 403.717 588.014L395.844 589.167L397.642 596.918C415.344 673.222 454.469 831.929 461.757 862.539C465.729 879.22 478.234 902.998 492.508 924.916C505.668 945.123 521.026 964.799 533.983 976.911L505.27 1093.45H396.983C427.526 1046.88 433.973 993.072 427.745 936C421.004 874.225 399.314 807.773 376.45 741.24C353.478 674.389 329.313 607.431 316.842 543.547C304.382 479.72 303.827 419.985 327.219 367.464C365.092 282.429 432.23 233.049 499.385 205.836Z" fill="white" stroke="black" stroke-width="14.6526"/>
<ellipse cx="616.007" cy="615.23" rx="32.9684" ry="36.6316" transform="rotate(-6.77646 616.007 615.23)" fill="black"/>
<ellipse cx="850.561" cy="578.585" rx="32.9684" ry="36.6316" transform="rotate(-6.27568 850.561 578.585)" fill="black"/>
<path d="M744.446 619.106C751.583 669.891 782.584 706.225 782.584 706.225C782.584 706.225 772.946 729.774 735.652 727.617" stroke="black" stroke-width="14.6526"/>
<path d="M479.874 793.205L477.918 795.313C464.517 809.752 446.917 820.548 426.846 820.548C414.692 820.548 403.282 818.756 394.366 813.689C385.013 808.374 378.96 799.747 377.534 787.775C377.039 783.622 377.356 779.675 378.424 776.014C365.427 764.6 357.59 747.423 355.645 724.083C353.649 700.131 361.166 680.917 375.099 667.776C388.878 654.781 408.221 648.38 428.883 648.38C446.069 648.38 462.702 652.972 476.38 661.365L479.874 663.51V793.205Z" stroke="black" stroke-width="14.6526"/>
<path d="M428.883 655.706C467.322 655.706 502.146 680.552 502.146 717.979C502.146 720.427 502.011 722.844 501.751 725.224C499.726 761.745 467.535 813.221 426.847 813.221C403.63 813.221 387.114 806.256 384.809 786.908C384.21 781.878 385.156 777.473 387.311 773.722C373.739 764.033 364.985 747.936 362.946 723.474C359.283 679.517 390.444 655.706 428.883 655.706Z" fill="#F9C9B6"/>
<path d="M445.074 686.844C430.421 680.129 398.186 676.588 386.464 716.15" stroke="black" stroke-width="14.6526"/>
<path d="M406.611 688.674C414.548 695.39 429.689 716.148 426.758 745.453" stroke="black" stroke-width="14.6526"/>
<path d="M674.02 1175.66C708.657 1175.66 735.611 1180.94 761.189 1187.91C786.347 1194.77 811.85 1203.82 840.886 1210.49L841.399 1210.61L841.924 1210.65C1010.89 1224.59 1112.21 1299.64 1185.74 1402.99H184.53C244.238 1295.51 329.163 1227.09 466.849 1195.7C525.509 1182.33 593.844 1175.66 674.02 1175.66Z" fill="#77311D" stroke="black" stroke-width="14.6526"/>
<path d="M424.668 1203.65L458.197 1131.86C458.998 1130.15 460.989 1129.33 462.773 1129.96C601.703 1179.14 728.092 1175.68 845.219 1143.07C846.693 1142.66 848.268 1143.21 849.172 1144.44L900.208 1214.23C901.611 1216.15 900.896 1218.86 898.684 1219.72C775.575 1268.07 544.572 1259.85 426.444 1208.49C424.57 1207.68 423.803 1205.5 424.668 1203.65Z" fill="white" stroke="black" stroke-width="14.6526"/>
</g>
<defs>
<clipPath id="clip0_6_318">
<rect width="732.632" height="1172.21" fill="white" transform="translate(329.685 157.517)"/>
</clipPath>
</defs>
</svg>
